<?xml version="1.0" encoding="UTF-8"?><svg id="Capa_1" xmlns="http://www.w3.org/2000/svg" viewBox="0 0 841.89 595.28"><defs><style>.cls-1{fill:#fff;}.cls-2{fill:#fbcd3c;}</style></defs><circle class="cls-2" cx="410.44" cy="219.12" r="152.5"/><path class="cls-1" d="m418.16,342.08c-18.27,6.59-38.72-2.76-44.97-21.16-1.85-5.45-2.81-12.03-2.22-19.95l2.36-31.67c.17-2.22-1.28-4.24-3.43-4.83-10.96-2.98-42.33-15.31-42.33-58.91,0,0-2.38-78.62,80.64-82.34,0,0,78.23-6.92,76.63,72.38,0,0,1.49,31.89-27.25,46.25-1.82.91-2.91,2.83-2.72,4.86,1.43,15.7,4.7,80.42-36.73,95.37Z"/><path d="m333.61,238.58c-.05-.03-.11-.05-.17-.04.09.07.14.07.17.04Z"/><path d="m370.51,267.8c-.06-.07-.15-.12-.21-.18.11.13.17.17.21.18Z"/><path d="m326.34,210.08s.02.04.04.07c-.04-.45-.04-1.07-.05-2.07,0,.67-.03,1.33.02,2Z"/><path d="m411.74,347.36l-.71.08c.32-.03.53-.04.71-.08Z"/><path d="m368.08,308.49c.07.2.1.53.14.86-.01-.41-.04-.74-.14-.86Z"/><path d="m329.82,194.9l-.29.79c.08,0,.21-.28.29-.79Z"/><path d="m336.75,166.78s-.04.02-.07.05c0,.05.03.01.07-.05Z"/><path d="m331.94,177.18c-.06.24-.12.52-.16.81.08-.34.23-.76.16-.81Z"/><path d="m331.72,178.38c.02-.13.04-.26.06-.39-.05.21-.09.39-.06.39Z"/><path d="m341.44,153.24c-.56.67-.86,1.37-1.23,2.06.41-.69.79-1.4,1.23-2.06Z"/><path d="m459.02,270.13l.07.19c-.02-.18-.04-.21-.07-.19Z"/><path d="m342.11,155.1l-.39.46c.16-.16.28-.31.39-.46Z"/><path d="m329.68,210.15c.24.82.14,2.52.32,2.5-.09-.87-.04-2.12-.32-2.5Z"/><path d="m451.68,250.47l-.05-.55c.02.26.03.43.05.55Z"/><path d="m342.11,155.1c.15-.18.3-.36.46-.53-.06.02-.14.07-.21.11-.08.14-.15.28-.25.42Z"/><path d="m488.12,183.66s0,.02,0,.03c.02.07.03.13.05.2l-.05-.23Z"/><path d="m487.81,178.29c.08.37.15.73.23,1.13-.07-.61-.15-.92-.23-1.13Z"/><path d="m340.22,155.31l-.68,1.18c.27-.41.48-.8.68-1.18Z"/><path d="m456.99,130.4c.16.09.32.18.47.26-.2-.12-.35-.21-.47-.26Z"/><path d="m368.14,304.37c.01-.13.03-.31.05-.47-.04-.05-.08-.02-.05.47Z"/><polygon points="387.25 336.11 387.26 336.12 387.26 336.12 387.25 336.11"/><path d="m385.58,335.14c.44.42,1.19.86,1.67.97-.52-.31-.97-.65-1.67-.97Z"/><path d="m390.72,338.32c-.06-.04-.11-.08-.19-.13.07.05.12.09.19.13Z"/><path d="m373.37,305.97s-.01,0-.02,0c0,.01.01.02.02.02v-.02Z"/><path d="m374.03,313.71c-.01.14-.02.33,0,.54.01-.13.01-.31,0-.54Z"/><path d="m409.13,341.45s0,0,0,0c.02,0,.02,0,.04,0-.01,0-.02,0-.03,0Z"/><path d="m449.75,287.53c-.5,3.73-1.23,7.97-2.24,12.13-1.01,4.15-2.3,8.22-3.8,11.56-.11.82-.46,1.73-.85,2.73-.37,1.01-.9,2.04-1.41,3.09l-.56-.03c-.26.59-.49,1.2-.79,1.76-.54.59.69-1.3-.2-.23l-.1.78c-.12.02-.79,1.05-1.25,1.72-.51.63-.76.93-.05-.52-.65,1.05-1.4,2.02-2.08,3.03-.73.98-1.53,1.9-2.28,2.86-1.09,1.18-.33.97-1.64,2.2-.36.16.37-.54.13-.56-.96.94-1.74,1.62-2.36,2.28-.62.66-1.08,1.28-1.61,1.82-.51.56-1.02,1.12-1.65,1.72-.65.58-1.49,1.12-2.57,1.76l.32-.29c-.62.62-2.09,1.34-2.08,1.41.81.13.7-.6,2.13-1.19.06.22-.32.53-.68.81-.37.27-.74.48-.61.6-1.13.41-1.64.95-2.56,1.46-1.75.43-4.04,1.63-5.42,1.6-.39.19-.78.46-1.3.75-.53.26-1.2.48-2.11.68-1.36-.09.25-.35-1.53-.18l-.25.28c-1.47.1-1.25,0-1.21-.11-.78.07-1.1.19-1.47.29-.37.07-.8.11-1.79.03l1.1-.24c-1.45.05-2.05.15-4.06-.13.06-.14.86-.05,1.45.06-1.06-.49-1.88-.03-2.47-.13.15.12,1.55.32.84.49-.5-.08-1.05-.04-1.56-.04-.51-.05-.97-.12-1.3-.34l1.13-.02c-1.05-.11-1.35-.09-1.67-.11-.16-.01-.33-.03-.61-.09-.28-.05-.67-.13-1.24-.35.13.02.09-.06.15-.09-.78-.07-1.64-.32-2.56-.64-.9-.41-1.86-.88-2.9-1.33.14.04.28.07.42.11-.87-.28-1.4-.37-1.84-.6,1.09.74.74.64.74.91-.68-.59-1.32-.79-2.1-1.05-.78-.25-1.64-.69-2.78-1.57.12-.09.8.14,1.37.7,1.04.18,1.31-.04,2.91.56-.49-.2-1.02-.43-1.38-.62-.34-.22-.53-.38-.38-.39l-.48.15c-.53-.36-.96-.64-1.36-.91-.38.05.87,1.06-.49.36-1.46-.89-.48-.87-.8-.88-.96-.67-1.21-.74-1.44-.84-.11-.05-.22-.1-.4-.23-.19-.13-.44-.35-.81-.79.19.13.53.41.67.55-1.06-1.23-2.91-2.73-2.8-3.46.23.11.37.05.72.55l-.07.03c.73.52.45.28.1-.1-.34-.39-.76-.9-.42-.83-.06.13-.43-.24-.87-.75-.21-.26-.46-.53-.66-.82-.18-.3-.35-.58-.49-.79l-.06.43c-1.3-1.16-1.16-1.21-.93-1.3.12-.04.25-.1.24-.31,0-.22-.22-.55-.6-1.28-1.14-1.76.3.74-.48-.3-.61-1.29-.69-1.83-1.53-3.72-.11-.58-.4-1.71-.1-1.92-.54-1.15-.91-3.71-1.34-4.36.21,2.19.79,2.02,1.13,4.55l-.52-.58c-.52-1.68-1.18-3.87-1.26-5.11-.02.26-.08.38-.17.24-.55-2.49-.94-3.2-1.01-5.71.27-.34.3,1.12.44,2.17.09-1.62-.16-1.67-.14-4.18.25-.14.03,1.68.31,1.95-.08-.91-.13-1.83-.16-2.75.02.01.03,0,.05,0-.44-.4.04-2.11.02-3.81.29-4.11-.22-4.84-.39-7.16.16-.61.28-.79.37-.52-.27,1.01-.1.84-.02,1.21.06-1.41.65-3.06.76-2.25.04-2.25-.28.79-.31-.59l.26-3.07c-.25.35-.37,1.42-.42-.18.04-1.34.13-1.99.28-3.74.09.26.37-.53.26.79.15-.84.25-2.16.08-2.69-.34,1.9.05-3.16-.4-1.75l.34-1.9c-.04.44.1.5.01,1.14.37-.52.02-1.57.04-2.25.11-.67.27-2.42.41-2.55-.05-.61.14-2.09.33-2.35,0-.91-.21-.09-.3-.36l.26-3.06c.2-.15.72-.37.76.1-.04-.59-.17-.7-.27-.89-.05-.09-.09-.2-.11-.4,0-.05,0-.11-.01-.17,0-.09,0-.18,0-.29,0-.21-.01-.47-.03-.79.21.72.28-.13.18-.92-.1-.78-.31-1.51.27-.48-.07-.8-.65-2.34-1.9-3.51-.61-.59-1.35-1.08-2.11-1.4-.38-.17-.76-.28-1.12-.38-.21-.05-.42-.1-.6-.14-.49,0-.11.16.37.34.16.06.34.12.5.19.2.07.38.16.53.24.31.16.48.32.42.36-.38-.18-.75-.32-1.11-.42l-.26-.07-.17-.04c-.11-.02-.21-.05-.32-.07-.41-.08-.78-.15-1.11-.21-.67-.11-1.21-.18-1.71-.25-1.01-.14-1.88-.27-3.32-.93.24.13.49.25.74.38-1.9-.59-1.68-.53-2.84-.78.65-.12-1.68-1.74-4.51-3.26-.33.03,1.42,1.18.83,1.17-.65-.31-1.28-.67-1.92-1-.12-.1.12-.04.38.06-1.76-.85-2.82-2.27-3.51-2.24-.45-.5-.87-1.04-1.3-1.55l.5.63c-.16,0-.69-.31-1.22-.64-.53-.34-1.06-.73-1.26-.84-1.85-1.23-2.36-1.89-3.08-2.88.18.37.66,1.27-.66.13.38-.38-2.45-2.72-2.17-2.91-.47-.52-1.17-1.55-1.4-1.46l.35-.15c-.48.21-2.12-1.77-3.32-3.32.79-.02-1.26-1.75-1.2-2.81-.59-.07-1.92-2.88-2.39-3.02-.72-1.33-.27-1.39-.3-1.8l-.45-.56c-.05-.39-.38-1.22-.73-2.17-.31-.96-.7-2.01-.91-2.82l-.88-1.35v-.61c-.2-.2-.62-1.43-.54-.61l-.2-.82c-.44.05-.47-1.11-1.04-2.73-.02-.4.11-.32.25.02-.18-.83.12-.53.17-1.01.02.62-1.45-2.83-1.15-.54-.14.19-.58-1.1-.62-1.95l.31-.58-.59-.93c-.3-1.3-.05-1.9-.15-2.97.15,1.09,1.05,2.31.72-.48.24,1.46.5,2.15.73,2.88-.08-.57-.09-.86.23,0-.44-2.13-.35-.68-.66-2.82.4.07.36-.53.37-2.41-.05.47-.13.95-.15,1.42-.05-.06-.09-.15-.13-.26.02.53-.02.69-.14.82-.08-.41-.66-2.46-.47-2.84-.21,1.11-.38.17-.53-.88-.18-1.05-.21-2.21-.38-1.5-.11-.25-.17-1.78.01-1.94.31,1.82.38-1.38.64-1.08-.12-.68-.24,1.43-.39.52-.06-1.1.21-1.84.34-2.46l.05.45.23-1.66c-.17-.28-.38,1.61-.4.06.1-.4.1-1.96.24-1.9.2.75.56.24.55,1.55.01-1.08.28-4.55-.18-3.18.04-.43.08-.87.13-1.3-.25.8-.69,3.07-.53.45l.07.03-.08-1.85.27-.77c-.09.01-.14-.28-.05-.96.13-.16.26-.79.39-.72.23-1.95.05-1.82-.02-2.09.15-1.09.29-1.49.42-.95.25-1.48.73-4.07,1.11-5.04.28-2-.17.39-.15-.81,1-1.56,1.72-6.41,2.76-9.52-.79.67.21-.87-.07-1.61-.09.71,1.51-2.76.64-.03l.57-1.65c.71-1-.81,2.76.22,1.23.67-1.81.54-3.25,1.7-5.24.04.86.61-1.66.76-.96-.07.49-.37,1.05-.6,1.65l.23-.33c.46-.95.7-1.51.8-1.84.13-.32.11-.43.05-.49-.12-.12-.4-.04,0-1.08,1.19-2.31,1.23-1.65,1.47-1.69.22-.34.9-1.43,1.17-2.06-.32.72-.77,1.29-1.1,1.61-.31.33-.55.37-.48,0,.95-.76,2.09-3.21,2.32-3.93-1.19,1.43-1.55,1.98-1.89,2.49-.17.26-.34.51-.61.86-.25.37-.58.86-1.11,1.57-.1.5.28.6-.85,2.39.43-1.26-.26-.03-.45.3.38-.27-.52,1.38-.7,2-.41.46.04-1.38-.93.55l.33.58c-.4.74-.25-.49-.77,1.23.11-1-.56.09.33-2.18-.84,1.23-1.11,2.34-1.36,3.35-.12.51-.21,1.01-.31,1.51-.08.51-.16,1.03-.29,1.59.04-.23-.02-.28.01-.51-.01.51-.29,1.33-.47,1.98-.58,1.38.13-1.19-.13-.87-.23.77-.51,1.53-.7,2.32-.03.04-.04.05-.05.05-.1.64-.21,1.23-.4,1.41.02-.74-.08-1.06-.08-1.57l-.31,2.56c-.1-.32-.84,1.96-.5.17-.3,1.23-.53,2.47-.8,3.7l-.43.23c-.13.9-.07.94.21-.11-.38,1.25-.46,5.75-1.03,4.96-.17,2.98-.46,4.03-.65,7.62-.05-2.79-.75,3.12-.6.18-.33,1.7.05,2.09,0,3.45-.23,1.26-.56.67-.6-.71,0,.54.04,1.09.06,1.63l-.07-.03.13,1.42c-.25,1.49-.39.3-.48,1.85l.32.35-.17,1.05c.14-.39.22.52.27,1.64l-.07-.02.09,1.36c-.11-.67-.12-.36-.14.05,0,.4.01.9-.12.59.06,1.17.07,1.19.27,3.29l.19-.39c.48,2.71-.32.14-.09,2.37l.24-.17c-.05,1.62.24,2.96.53,4.19.26,1.23.64,2.33.75,3.52-.35-1.32-.57-.92-.49-.91.26.99.55,2.31.97,3.61.37,1.31.86,2.59,1.35,3.55-.11.86-.17,1.07.49,3.18.59,1.49.78,1.67,1.17,2.06.46,1.49,2.04,3.94,1.83,4.15.35.21.67,1.23,1.25,1.87v.21s.15-.25.15-.25c.97,2.65,2.78,3.7,4.13,6.14l-.36-.33.82.84c.03.21-.32-.11-.47-.06,1.13,1.42,2.36,2.77,3.64,4.06l-.62-.9c.82.8,1.53,1.17,2.39,2.16-1.85-1.2,1.31,1.25,1.41,1.66l-.96-.68q1.23,1.02,1.3.74c1.64,1.26.8,1.27,2.47,2.24l-1.07-.84c-.22-.37.67.08,1.39.63.15.16.6.62.02.24,1.36.89,3.32,2.35,4,2.62.71.53.37.53-.07.34,1.54.83,1.89,1,2.23,1.21.34.21.67.42,2.27,1.12l-.12.1c.38.14.77.25,1.15.38.47.34.94.68,1.42,1.01l-.48-.42c1.05.45,1.74.65,2.94,1.23h-.58c3.04,1.08,3.37,1.7,6.41,2.33.19.1-.29.03-.53-.01.7.13,1.2.24,1.55.35.19.07.31.17.41.27.2.23.4.34.99.82-.11-.03-.1.15-.18.13.15.14.29.32.4.51l-.29.05c.19.1.36.24.53.4-.09.15-.18.29-.29.41.05.09.07.31.11.46-.65,1.3-.38,3.24-.93,5.05l.39-.29c.41,4.71-1.22,10.6-1.29,16.24l-.28-.12.17,2.34c-.32,1.22-.19-.77-.37-.39-.03,2.49.35,1.07.21,3.95-.3,1.46-.17-.53-.22-1.23-.05,2.71-.24,6.69-.45,8.73.04.05.09.17.1.07.07,1.88,0,4.37.19,6.45-.13-.04-.21-.55-.26-1.07.03.75.02,1.78.23,2.41l-.33-.76c.06,1.62.81,4.66.61,5.06.08-.21.29-.17.57,1.2-.26.86,1.04,3.66,1.7,5.83-.22-.21-.81-1.77-.65-1.33.28,1.11.88,2,1.37,2.88l-.28-.22.56,1.21.67,1.15c.46.76.88,1.54,1.37,2.28.03.44.74,1.48,1.39,2.39.16.23.32.44.46.64.16.19.3.36.41.49.22.28.33.45.21.43,1.2,1.48-.86-1.35.71.47.27.61,1.45,1.61,1.19,1.71l-.21-.16,1.21,1.17-.96-.55c1.08.99,2.04,1.53,2.23,1.42.9,1.04,2.53,2.11,2.85,2.72l-.44-.26c3.15,2.16,4.99,4.21,8.03,4.96.2.12.14.18-.3,0l2.22.93-.61-.02c.63.22,1.29.35,1.94.49l1.95.42-.09.12c.62.23,1.37.33,2.16.5.8.14,1.64.37,2.53.44.89.08,1.8.16,2.7.24.9.08,1.79.01,2.64.02l-.51.07c.92-.05,1.61-.07,2.16-.07.55-.05.96-.07,1.34-.08.77-.04,1.42-.01,2.75-.28-.09.06-.17.09-.27.11l2.39-.47-.5.24c1.72-.54,5.1-.95,3.97-.85.47-.21,1.11-.5,1.67-.75.53-.29.96-.57,1.06-.71,2.4-1,.66-.07,2.2-.57.88-.33,1.34-.66,1.89-1,.55-.33,1.17-.69,2.34-1.23l.02.15c1.04-.6,1.59-1.13,2.99-2.03l-.38.32c.53-.44,1-.72,1.39-.99.39-.28.74-.49,1.07-.7.65-.42,1.23-.83,1.88-1.72.93-.66,2.46-2.18,2.58-1.9.61-.59,1.12-1.21,1.62-1.79.5-.58.99-1.15,1.48-1.72.91-1.17,1.81-2.35,2.78-3.7.69-.15.38-.6,1.76-2.08l-.29-.02c2.59-3.86,5.64-8.32,7.44-13.11l.29-.04.12-1.05c.55-1.26,1.02-2.65,1.55-4.05.5-1.41.94-2.88,1.4-4.3.4-1.44.8-2.84,1.13-4.15.31-1.32.59-2.53.83-3.59.12-1.42.28-3.57.7-5.76v.24c.5-3.87.89-7.94,1.37-12.14.08.27.2-.14.22.34-.19-1.02.19-2.47.24-3.38l-.26,1.05c-.17-1.21.19-2.92.39-3.52l-.19-1.91c.03-.12.08-.32.12-.34l-.12-.34.37-1c-.06-.47-.07-2.98-.4-3.77.11-.18.21-1.95.26-.58.06-2.31.05-4.61.03-6.92l-.09,1.08c-.25.14-.46-1.93-.39-3.01.26,1.4.37.1.53-.51-.17-.93-.19.83-.35.34-.21-1.18-.43-3.66-.36-4.3l.15.7c-.19-1.59.2-2.37.05-3.95-.08-.35-.14-.68-.18-.97-.02-.15-.04-.28-.06-.41-.02-.14-.02-.1-.03-.15-.03-.12-.1-.18-.31-.15.03-.74.33-.2.42-.39-.06-.17.08-.46.31-.63.25-.18.4-.14.81-.24.37-.58,1.69-1.16,2.89-1.8,1.19-.65,2.33-1.23,2.35-1.6l1.63-.76c-.04-.16.09-.58,1.17-1.52,1.16-.71,1.06-.31,1.48-.45.13-.32.25-.66.36-1,3.16-2.29,6.36-5.6,9.02-9.39,1.33-1.9,2.53-3.91,3.63-5.92,1.07-2.03,2.02-4.06,2.88-6.02,1.22-3.62,2.22-8.3,2.89-12.65v.49c.26-1.44.48-2.89.64-4.36-.17,1.06-.35,2.12-.58,3.16.07-.96.04-1.71.13-2.63.16-1.2.3-2.5.36-3.92.03-1.31.06-2.68.09-4.09.01-1.44.02-2.91-.02-4.38-.12-1.47-.27-2.95-.45-4.39-.89-3.67.32-2.55-.63-6.07.1.3.21.4.31.66-.7-3.84-1.38-5.88-2.59-9.59.72.27-.77-2.43-.35-2.19l-.34-.24c-.11-.87-.67-2.86-.42-2.63-.25-.52-.58-1.02-.89-1.52l.18-.23c-.43-1.07-1.12-2.75-1.79-4.3-.74-1.51-1.37-2.93-1.42-3.6-1.52-2.46-3.54-5.59-5.94-8.67-.56-.81-1.25-1.51-1.89-2.27-.65-.74-1.29-1.51-1.95-2.23-.7-.69-1.39-1.38-2.06-2.05-.34-.34-.67-.67-1.01-1-.34-.32-.7-.61-1.04-.91-.46-.25-1.1-.7-1.78-1.23-.34-.26-.69-.54-1.05-.81-.36-.25-.73-.5-1.06-.74l-1.25-1.27c-.35-.22-.73-.44-1.1-.65-.39-.19-.77-.37-1.16-.56-.76-.37-1.49-.77-2.1-1.26.03-.03.09-.01.2.03-1.47-.84-2.85-1.67-4.37-2.17-1.65-.81-3.23-1.68-2.6-1.71-.19.21-1.06-.26-1.92-.67-.86-.42-1.67-.9-1.67-.9,0,0-1.36-.6-3.86-1.43-2.49-.87-6.13-1.94-10.63-2.87-4.51-.92-9.87-1.69-15.79-1.91-1.48-.06-3-.08-4.55-.07-.78.02-1.56.03-2.37.07-.85.04-1.58.1-2.36.15-1.55.11-3.12.22-4.7.34-1.58.09-3.22.38-4.84.57-6.5.91-13.18,2.35-19.45,4.69-6.27,2.3-12.14,5.35-17.14,8.79-5.01,3.44-9.16,7.24-12.37,10.75-3.21,3.53-5.47,6.79-6.94,9.21-.3.73-1.37,2.54-.67,2.06-.87,1.35-1.67,1.69-1.65,2.09,1.42-1.67.13.92,1.64-.62l-.75,1.13c-.02.33.93-1.61.99-1.15l-.15-.58c.71-.85,1.14-1.28,1.5-1.49.5-.92.41-1.84,2.19-3.6-.15.18-.28.37-.41.55,1.29-1.57,1.04-.75,1.36-1.02l-.3.33,1.29-1.13c-.97.86-2.06,2.72-1.36,1.86,1.67-1.72-.5.4.64-1,.72-.86.7-.46.77-.33l1.3-1.52c.12.2-.88.99-.18.53.48-.69,1.04-1.32,1.55-1.99.71.04,1.7-2.18,2.93-2.56-1.23,1.33.25.02.16.35,1.07-1.01,2.11-2.04,3.26-2.97.37-.21-.78.87-.28.42.73-.42.96-.97,1.3-1.26.2-.06.81-.61,1.43-1.05.63-.43,1.22-.8,1.28-.62,1.27-.78,1.45-1.06,1.61-1.33.16-.27.29-.55,1.52-1.21.43-.02-1.82,1.25-.66.76l2.37-1.63c-.16.23-.28.61-1.2,1.15.83-.5,1.62-.95,2.38-1.37.76-.42,1.53-.73,2.25-1.06.73-.32,1.43-.62,2.11-.92.68-.29,1.39-.51,2.06-.76,2.69-1.02,5.34-1.86,8.57-3.19,1.03-.04-.63.36-1.21.79,2.32-.99,4.07-1.39,5.72-1.72,1.68-.24,3.26-.42,5.33-.96l.03-.23c1.51-.12,3.07-.31,4.67-.56,1.6-.26,3.27-.37,4.95-.61.85-.09,1.68-.24,2.55-.3.87-.06,1.74-.12,2.6-.18.87-.05,1.74-.1,2.6-.15l1.3-.06,1.22-.02-.79-.12c.89-.26,2.38-.32,3.48-.41.17.11-.8.45,1.15.38-.4-.09-1.22-.17-.98-.27,2.89.27,7.38.58,12.28,1.31,4.9.7,10.18,1.95,14.6,3.52,6.05,1.88,12.09,4.69,17.32,8.52,5.27,3.77,9.77,8.42,13.27,13.41-1.12-1.48-.22-1.16.52.05.32.95.7,1.77,1.12,2.52.41.76.92,1.43,1.3,2.18.41.73.83,1.47,1.23,2.25.2.39.39.8.57,1.22.16.43.28.9.4,1.39.71,1.64,1.47,3.21,1.9,4.89.24.82.48,1.64.71,2.45l.34,1.21.25,1.24c.31,1.65.73,3.25,1.02,4.9.27,1.65.6,3.29,1.02,4.94l-.24.16c-.02,1.02.16,1.28.28,2.34l-.07-.02c.05,1.26.2,2.64.33,3.89.1,1.26.11,2.39.07,3.12l.29.09c.04,1.51-.21.78-.03,2.33l-.15-.05.15.9.07.45.04.23c.01.1.02.08.04.34-.03-.03-.06,0-.08.05-.02.09-.04.13-.06.15-.03.09-.05.22-.07.4-.03.36-.03.9-.04,1.49-.02,1.17-.08,2.54-.25,3.1-.08,1.88-.44,5.48-1.28,8.24-.37.46-1.34,3.83-2.31,5.83-.76,2.02-1.82,4.42-3.21,6.79-1.38,2.38-3.09,4.73-4.93,6.72l.31.15-.95,1.07c-.04-.06-.2.05-.08-.13-1.01.55-2.24,2.4-3.28,2.97.73-.25.79-.61,1.39-1.16.93-.72.39.34-.93,1.25l-.02-.08-.7.85c-.26-.12-1.11.39-1.36.27-1.8,1.48-3.41,2.62-5.08,3.75-.42.27-.86.52-1.3.78-.48.28-.97.56-1.47.85-1.7.94-3.19,2.53-3.97,4.65.04-.5-.6,1.06-.61,2.61-.02.36.02.81.02,1.04,0,.19,0,.35,0,.47-.02.24-.08.32-.23.07.44,3.05.36-.54.83.83.06.86.26,1.76.09,1.92-.15-.4-.26.72-.35.02l.17,2.06c-.03.2-.12-.25-.17-.48.53,4.19,0,7.46.29,11.23.18.28.04-1.5.22-1.22.36,3.81-.32,3.36-.15,6.9l-.23-.74c.15,1.15.33,1.66.05,3.52-.31.31-.17-1.6-.27-2.51-.06,1.29-.14,4.54.17,3.57,0,1.55-.3,2.09-.43,2.92.07.03.29-1.43.36-.51-.29,2.09-.6,5.31-.92,7.85-.07-.03-.2.13-.21-.09.1,2.08-.49,1.79-.83,4.58Z"/><path d="m373.42,304.96c-.02.34-.04.68-.05,1.01.06,0,.14.05.21.51-.06-.51-.12-1.01-.16-1.52Z"/><path d="m397.6,340.78c.12.01.25.03.36.03-.23-.06-.31-.05-.36-.03Z"/><path d="m408.8,341.26c-.79.14-.08.15.32.18.01-.06-.01-.13-.32-.18Z"/><path d="m374.64,276.64c.01.19.04.3.11.28-.03-.25-.07-.31-.11-.28Z"/><path d="m330.62,218.56c0,.1,0,.19,0,.31.01-.06,0-.17,0-.31Z"/><path d="m331.01,222.81c.05.2.1.47.24.83-.09-.37-.16-.63-.24-.83Z"/><path d="m373.33,295.69c-.01.29-.01.58.03.83.03-.45,0-.68-.03-.83Z"/><path d="m331.55,224.47l.25,1.04s.04,0,.06,0l-.31-1.04Z"/><path d="m330.43,217.24c.06.41.15.97.19,1.33-.01-.54-.08-.95-.19-1.33Z"/><path d="m356.48,257.31s.06.03.1.05c.79.3.31.09-.1-.05Z"/><path d="m333.4,228.76s.02.09.03.14c.06.09.11.18.18.26l-.21-.4Z"/><path d="m330,212.65c.02.2.04.38.09.53,0-.17,0-.36-.01-.61-.03.06-.06.08-.08.08Z"/><path d="m344.22,247.17c-.28-.15-.41-.18-.46-.15.24.26.43.39.46.15Z"/><path d="m404.91,318.29c-.03.05-.04.11-.03.17.06-.09.06-.14.03-.17Z"/><path d="m406.15,283.73l.53.13c-.34-.12-.47-.14-.53-.13Z"/><path d="m400.46,308.58s-.04.02-.06.03c.43,0,1.01-.09,1.95.02-.31-.03-.63-.07-.94-.08l-.94.03Z"/><path d="m432.56,242.1l-.09.57c.05-.26.09-.42.09-.57Z"/><path d="m411.34,292.89c.12-.15.34-.38.57-.59-.3.25-.53.46-.57.59Z"/><path d="m410.84,316.32l-.25-.62c-.06.06.02.29.25.62Z"/><path d="m407.73,338.55s.04,0,.07-.02c.01-.04-.02-.02-.07.02Z"/><path d="m413.37,330.42c.05-.21.11-.46.16-.71-.09.29-.22.66-.16.71Z"/><path d="m413.58,329.37c-.02.11-.03.23-.05.34.05-.19.08-.34.05-.34Z"/><path d="m357.92,206.32c-.56.41-.96.87-1.41,1.31.48-.41.95-.86,1.41-1.31Z"/><path d="m417.67,173.2l.06-.19c-.09.15-.09.19-.06.19Z"/><path d="m358.18,208.18c-.15.09-.29.18-.44.26.18-.08.32-.16.44-.26Z"/><path d="m400.49,311.91c-.61.17-1.9.26-1.84.44.62-.2,1.56-.2,1.84-.44Z"/><path d="m413.71,191.64l-.24.42c.12-.2.19-.32.24-.42Z"/><path d="m358.18,208.18l.51-.32c-.06,0-.13.02-.2.03-.09.1-.19.2-.31.29Z"/><path d="m413.79,196.14s0,.02,0,.03c.02.06.03.11.04.18l-.05-.21Z"/><path d="m413.66,191.35c.06.33.11.65.18,1.01-.04-.54-.11-.82-.18-1.01Z"/><path d="m356.51,207.63c-.27.25-.55.46-.83.69.32-.22.58-.44.83-.69Z"/><path d="m376.82,201.48c.06-.15.12-.29.18-.43-.09.18-.15.32-.18.43Z"/><path d="m407.95,294.95c-.12.05-.29.12-.43.18-.03.06.02.08.43-.18Z"/><polygon points="421.79 263.75 421.8 263.74 421.79 263.74 421.79 263.75"/><path d="m421.49,265.51c.21-.52.32-1.32.3-1.76-.16.54-.27,1.05-.3,1.76Z"/><path d="m422.94,260.1c-.03.07-.05.12-.08.2.03-.07.06-.13.08-.2Z"/><path d="m406.55,289.72s0,.01.01.02c0-.01,0-.02,0-.02h-.02Z"/><path d="m411.22,285.45c.1-.07.22-.18.35-.3-.1.06-.22.16-.35.3Z"/><path d="m426.23,242.68s0,0,0,0c0-.02,0-.02,0-.04,0,.01,0,.02-.01.03Z"/><path d="m428.45,177.28c.52,1.22,1,2.8,1.34,4.4.34,1.61.55,3.33.61,5.07.02.43.02.87.01,1.31,0,.5,0,.99,0,1.49-.02.96-.03,1.9-.05,2.83-.05,1.87-.13,3.67-.25,5.34.31,1.48.2,3.6.15,5.74l-.52.19.04,1.79c-.2.71,0-1.37-.28-.11l.27.69c-.19.13-.46,4.56-.6,1.55-.17,2.3-.37,4.6-.58,6.9-.16,1.52.34.93.05,2.6-.18.33-.04-.62-.24-.49-.88,5.01.39,5.94-.41,10.62l-.02-.41c.03.82-.18,2.34-.11,2.36.59-.54-.17-.88.31-2.27.41.18,0,1.82.34,1.77-.3,1.08-.14,1.76-.25,2.72-.49,1.6-.64,3.97-1.17,5.14.01.82.29,1.78.03,3.49-.54,1.17-.27-.34-.68,1.3l.2.31c-.27,1.36-.31,1.13-.42,1.06-.28,1.45.13,1.28-.38,3.07l-.05-1.06c-.17,1.37-.3,1.91-.71,3.78-.13-.07.03-.82.18-1.36-.57.94-.19,1.77-.34,2.31.14-.13.45-1.42.57-.74-.23.92-.08,2.05-.51,2.65l-.02-1.06c-.22,1.98.09,1.1-.5,3.3,0-.12-.07-.08-.11-.14,0,1.47-.73,3.23-1.28,5.27l.04-.4c-.14.85-.04,1.36-.18,1.8.45-1.13.44-.79.7-.84-.81,1.44-.16,2.49-1.15,4.93-.12-.08-.11-.73.24-1.38-.17-.98-.48-1.18-.25-2.76-.16.97-.43,2.11-.53,1.82l.3.41c-.15.58-.32,1.02-.44,1.45.17.32.74-1.04.5.34-.33,1.54-.63.67-.53.96-.51,2.09.15.98-.64,2.9.04-.21.1-.61.19-.77-.61,1.36-1.13,3.46-1.74,3.7-.02-.24-.14-.33.09-.84l.06.05c.23-1.64-.37,1.3-.61.67.28-.02-.51,1.89-.92,2.72l.38-.16c-.4,3.19-.45-.37-1.57,2.45-.64,1.81.39-.62.07.53-.6,1.15-1.04,1.47-1.81,3.19-.36.4-1.01,1.25-1.34,1.15-.44,1.05-1.93,2.75-2.06,3.42.67-.67.87-1.11,1.09-1.58.23-.46.49-.95,1.24-1.8l-.05.7c-.81,1.33-1.82,3.05-2.59,3.78.18-.13.31-.15.28,0-1.28,1.75-1.49,2.46-3.13,3.75-.4-.06.57-.76,1.17-1.43-.55.4-.81.62-1.14.91-.31.31-.71.65-1.54,1.2-.23-.15,1.1-.78,1.11-1.14-.56.48-1.12.96-1.73,1.35,0-.02-.02-.03-.03-.04-.02.37-.66.6-1.4.9l-.46.28c-.15.06-.39.17-.7.33-1.21.42-2.2.61-2.9.84-.74.22-1.33.45-2.27.54-.49-.17-.61-.3-.39-.38.78.28.66.1.95.01-1.13-.02-2.3-.73-1.68-.79-1.64-.21.54.35-.48.27-.37-.08-.77-.19-1.06-.29l-.23-.08-.15-.06c-.1-.04-.19-.08-.28-.13-.01.24.48.5-.31.34-.31-.12-.53-.26-.73-.44-.2-.18-.4-.42-.52-.83.17.07.28-.31.49.2-.14-.35-.08-.87-.22-1.1-.21.42-.22.07-.11-.33.11-.38.37-.8-.03-.57.13-.13.27-.26.42-.36.14-.11.27-.21.46-.32-.22.17-.11.29-.35.5.24-.01.29-.14.45-.35.14-.2.24-.47.41-.6.22-.06.54-.29.89-.38.35-.09.66-.17.72-.12.19-.09.55-.15.87-.2.34-.02.67.04.77.12.64-.11.05-.22.23-.34.38,0,.77.04,1.16.06.39.04.79.12,1.18.18.1.2.19.73-.17.75.89.01.41-.49,1.75-.13-.85.11,1.67.8.45.87.67.46,2.74,1.29,3.89,1.83.83.11-1.14-.76-.95-.98,1.63.73,2.56,1.05,3.38,1.34.82.29,1.52.58,2.53,1.46l-.5-.49c.72.44,1,.68,1.25.83.25.15.42.25.86.5-.62-.05.88,1.94,1.76,3.94.12.05.07-.26.04-.59-.04-.32-.12-.63.12-.53.16.23.27.48.39.73.13.24.21.5.3.75,0,.12-.1-.03-.21-.21.3.65.26,1.33.2,1.85-.08.52-.15.9.02,1.14-.14.23-.25.45-.39.66l-.45.62.37-.49c.16.23-.38,1.85-.53,2.21-.32.86-.64,1.41-.97,1.84-.31.42-.66.76-1.05,1.14.32-.21,1.08-.73.25.6-.46-.31-2.02,2.51-2.26,2.25-.36.49-1.18,1.12-1.05,1.33l-.2-.32c.14.22-.15.72-.64,1.24-.57.59-1.34,1.3-1.96,1.9-.15-.77-1.41,1.28-2.37,1.19.02.28-.55.74-1.13,1.15-.59.4-1.21.74-1.25.98-1.13.55-1.19.08-1.53.05l-.47.36c-.3-.01-.91.14-1.64.25-.36.07-.75.13-1.14.16-.31.04-.44.03-.64.02-.07,0-.14,0-.2-.01-.24.17-.53.32-.87.42-.06-.07-.11-.18-.16-.26-.18.1-.8-.19-.57.16-.12-.09-.25-.17-.34-.28-.44.34-.72-.3-1.15-1.19.06-.25.2-.21.31-.03-.06-.45.27-.32.45-.55-.08.15-.35-.18-.51-.5-.09-.16-.17-.31-.27-.33-.12-.03-.27.07-.45.44-.13.05-.17-.15-.13-.45.04-.14.1-.3.19-.45.1-.14.21-.28.33-.39.23-.03.44-.06.65-.06.01-.22.06-.46.13-.7.72-.64,1.21-.61,2.02-.94-.39.19-.75.61-.69.8.03.09.08.17.28.14.2-.03.51-.15.99-.35-.48.22-.87.52-1.03.7-.15.17-.23.33-.33.46.22-.14.32-.17.16.17.3-.3.34-.38.38-.47.08-.09.16-.22.87-.56.07.38.48.25,1.8.07-.34-.01-.69-.02-1.04,0,.03-.06.09-.11.15-.15-.38.08-.5.07-.63-.03.14-.06.54-.31.98-.51.44-.19.9-.34,1.06-.24-.88-.12-.19-.41.66-.54.42-.06.86-.12,1.13-.19.27-.02.36-.07.08-.18.2-.08,1.47-.04,1.57.18-.75.05-.48.18-.08.33.4.19.93.39.79.49.54,0-1.04-.48-.31-.47.87.11,1.39.58,1.8.82l-.36-.05c.19.1.39.18.58.28l.55.35c.28-.07-1.02-.83.12-.39.12.11.49.24.77.43.29.19.53.35.47.4-.62-.07-.42.36-1.32-.02.19.07.47.21.76.39.29.18.63.33.88.51.51.35.89.52.58.06.26.21.53.41.75.67-.32-.56-1.62-1.88.05-.62l-.06.04,1.23.85.25.63c.06-.07.27.06.61.49-.01.19.22.64.08.69.44.65.62.96.76,1.1.14.14.21.13.3.2.22.39.32.68.31.84,0,.15-.07.15-.23,0,.09.28.2.62.32.98.11.36.17.76.25,1.13.16.76.14,1.49.1,1.89.15,1.59.08-.33.31.6-.16.35-.23.85-.39,1.43-.07.29-.11.6-.17.95-.07.35-.15.73-.23,1.11-.32,1.53-.75,3.2-1.26,4.48.8-.48-.24.71-.02,1.39.12-.6-1.6,2.14-.62-.08-.21.44-.41.89-.65,1.32-.39.35-.12-.19.08-.7.19-.51.33-.96-.2-.4-.75,1.4-.81,2.65-2.19,4.03.12-.74-.86,1.2-.87.56.15-.4.53-.75.84-1.19-.09.07-.17.15-.26.21-1.17,1.3-1.31,1.51-1.21,1.67.08.14.37.18-.22.94-.79.77-1.18.99-1.39,1.01-.2.03-.22-.13-.33-.16-.16.07-.43.3-.73.55-.31.24-.62.51-.83.72.96-.93,2.1-1.3,1.79-.71-.51.15-1.18.6-1.77,1.1-.61.48-1.16.98-1.38,1.22,1.49-.63,1.95-.96,2.39-1.26.45-.3.86-.58,2.18-1.38.2-.41-.07-.59,1.29-1.77-.65.95.22.1.49-.09-.41.1.77-1,1.01-1.51.46-.29-.25,1.21.96-.23-.07-.2-.15-.4-.24-.6.47-.55.16.48.91-.88-.23.85.54.03-.62,1.83,1.89-1.82,1.92-3.45,2.51-5.29-.04.2,0,.24-.04.44.05-.44.33-1.14.5-1.69.55-1.18-.12,1.05.12.78.27-.65.48-1.33.69-2,.03-.04.04-.04.05-.04.09-.56.19-1.08.36-1.23.02.66.1.94.12,1.4.1-.76.17-1.52.21-2.27.12.28.68-1.76.48-.16.12-.55.19-1.1.24-1.67l.09-.84v-.85s.36-.29.36-.29c-.06-.83-.13-.84-.18.14.02-.29.01-.77-.11-1.29-.11-.52-.2-1.1-.38-1.61-.28-1.03-.59-1.8-.14-1.63-.29-.62-.51-1.13-.79-1.58-.26-.45-.45-.88-.75-1.27-.54-.81-1.12-1.7-2.32-2.76.99.76.58.19.14-.37-.21-.29-.44-.55-.5-.63-.06-.08.12-.04.62.43-.49-.64-.96-.84-1.34-1.06-.38-.22-.79-.31-1.32-.62-.9-.74-.31-.8.87-.21-.47-.21-.91-.47-1.39-.64l.06-.05-1.27-.38c-1.24-.65-.14-.44-1.52-.96-.13.07-.26.16-.39.24l-.92-.38c.33.22-.51.07-1.55.07l.03-.07c-.42-.01-.85-.02-1.27.04,1.25-.27-1.16,0-.6-.27-.55.02-.83.04-1.22.11-.39.07-.88.16-1.84.47l.4.12c-1.2.45-1.24.44-1.25.31,0-.1.03-.3-.96.14l.23.17c-.37.12-.69.24-1.05.43-.36.19-.7.4-1.01.64-.61.46-1.11.98-1.49,1.5-.79,1.03-1.04,2.22-1.07,3.44-.08-.69-.11-.96-.17-1.04-.06-.09-.13.01-.09.03-.12,1.08.22,2.59,1.18,3.68.92,1.12,2.4,1.71,3.54,1.59.41.26.66.35,1.38.41.2,0,.46,0,.8,0,.34-.01.78-.07,1.15-.1,1.44-.32,1.64-.43,2.04-.78.7-.13,1.67-.49,2.45-.85.78-.35,1.4-.67,1.49-.58.19-.34,1.15-.61,1.69-1.21h.2s-.24-.14-.24-.14c1.19-.48,1.96-1.22,2.67-1.95.73-.75,1.36-1.44,2.46-2.09l-.29.35c.25-.26.5-.54.74-.82.2-.04-.07.32,0,.46,1.26-1.19,2.28-2.5,3.22-3.8l-.71.66c.58-.84.76-1.54,1.52-2.38-.73,1.76.87-1.26,1.3-1.43l-.49.96c.77-1.24.76-1.25.48-1.28.43-.86.7-1.07.92-1.32.21-.25.46-.46.65-1.39-.15.42-.34.81-.53,1.19-.31.26-.05-.62.24-1.43.11-.18.44-.72.23-.08.24-.75.49-1.72.63-2.62.04-.46.08-.89.08-1.25-.02-.37-.05-.66-.08-.84-.04-.91.17-.65.32-.15-.18-.91-.34-1.45-.48-1.81-.12-.36-.17-.56-.26-.75-.16-.36-.25-.82-1.29-2.2l.15-.04c-.28-.28-.55-.58-.83-.84-.28-.47-.54-.98-.86-1.42.09.18.19.35.27.55-.77-.77-1.32-1.15-2.2-2.01l.51.16c-1.16-.94-1.82-1.48-2.48-2.01-.66-.52-1.33-1.01-2.63-1.55-.15-.13.26.03.48.11-2.45-.92-1.56-1.3-4.18-1.93.18,0-.06-.2.06-.22-.4-.09-.78-.21-1.19-.28l.18-.25-1.09.11c-.21-.17-.43-.34-.66-.49l-.51.03c-1.2-.84-3.18-.77-5.27-.94l.38.34c-2.49.54-5.51,1.54-7.72,4.86-.49.79-.9,1.67-1,2.6-.12.93.02,1.91.46,2.76.42.85,1.07,1.59,1.87,2.17.79.58,1.77.99,2.66,1.29-.07.08-.14.16-.22.23.95.21,1.73.28,2.53.32,1.21.45-.8.11-.44.31,1.29.17,1.56.07,1.88.01.32-.07.69-.09,2.12-.1,1.48.18-.51.23-1.22.27,2.66.03,6.37-.35,8.85-2.03l-.47.28c.1-.04.16-.07.22-.1.02-.06.11-.16,0-.12,1.61-.9,3.62-2.17,5.02-3.52.06.13-.3.46-.65.8.56-.44,1.31-1.04,1.63-1.56l-.35.69c.57-.5,1.28-1.33,1.88-2.04.58-.73,1.08-1.33,1.3-1.37-.2.07-.32-.12.43-1.12.8-.3,1.76-2.89,2.88-4.48-.01.26-.72,1.52-.51,1.17.59-.8.85-1.67,1.12-2.5l.04.32c.63-1.38,1.22-2.77,1.75-4.18.71-.42,1.58-3.92,1.75-3.52.59-1.48-.66,1.18.02-.72.38-.43.55-1.74.79-1.56l-.04.21.46-1.33-.04.93c.36-1.16.36-2.1.18-2.22.53-1.03.88-2.62,1.28-3.04l-.06.43c.84-3.09,2.24-4.89,2.4-7.46.08-.17.15-.13.05.25l.5-1.91.09.51.43-3.26.13.07c.55-2.09,1.16-5.4,1.63-8.12v.42c.33-3,.66-2.84.88-5.04.02.08.03.16.02.24l.32-1.96.07.45c-.06-1.5,1.06-4.08.66-3.23,0-.84.03-2.28-.1-2.55.29-2.14.26-.5.57-1.8.23-1.54.02-1.85.42-3.93l.14.06c.1-.99.08-1.61.22-2.98l.02.42c-.03-2.26.75-2.74.32-4.56.22-.92.31-2.71.59-2.59.12-2.8.21-4.97.33-7.75.51-.4.02-.6.42-2.25l-.26.1c.28-3.91,1.2-8.36,1.31-12.7l.26-.11-.24-.88c.17-2.3.33-5.05.43-7.53.15-2.79-.06-5.49-.4-7.52-.35-1.33-1.07-3.23-1.69-5.32l.11.21c-.35-.9-.73-1.81-1.24-2.76-.48-.94-1.13-1.93-2.03-2.89-.43-.46-1.04-1.01-1.7-1.42-.67-.43-1.41-.75-2.18-.94-.77-.2-1.59-.25-2.4-.18-.8.07-1.63.27-2.26.51.29-.22-.27-.1.31-.39-1.24.7-2.81,1.4-3.59,2.03.35-.19.69-.37,1.08-.54-1.04.95-2.43,1.98-3,2.3-.39.53-.74,1.05-1.07,1.59-.1.08-.25.2-.3.19l-.1.34-.87.57c-.31.53-1.36,2.16-1.54,2.98-.18.07-1.15,1.29-.51.27-1.18,1.66-2.44,3.26-3.55,4.99l.62-.74c.28.04-.59,1.67-1.2,2.41.5-1.16-.25-.28-.7.07-.34.77.58-.49.46-.04-.21.49-.6,1.2-.98,1.85-.36.67-.72,1.26-.91,1.47l.23-.59c-.64,1.28-1.36,1.62-2.05,2.85-.45,1.2-1.03,1.96-.53,1.93-.78,1.66-.59.49-.91.99-.11.43-.5,1.19-.89,1.89-.37.7-.76,1.33-.93,1.43.08.6-.52,1.68-1.04,2.74-.51,1.06-1,2.05-.82,2.32-.28.44-.58.86-.83,1.32.12.1.32.5-.02,1.69-.53,1.06-.68.72-.93,1.01.08.3.19.62.29.92-1.26,3.16-2.19,7.11-2.28,11.39-.06,2.13.1,4.34.62,6.57l.22.84.06.21.03.1v.05s.06.13.06.13c.13.38.31.74.54,1.09.92,1.41,2.5,2.24,4.1,2.28.8.03,1.64-.15,2.38-.51.38-.18.72-.41,1.04-.67.15-.13.29-.27.43-.41l.19-.21c.37-.43.78-.84,1.09-1.28,2.21-3.28,3.39-7.59,4.25-11.42l-.02.44c.31-1.27.6-2.55.82-3.83-.2.92-.45,1.84-.71,2.75.11-.85.1-1.52.24-2.33.86-4.16,1.39-9.78.79-14.92-.41-1.64-.33-2.2-.23-2.75.11-.55.24-1.09-.19-2.67.09.27.19.36.29.6-.32-1.72-.62-3.04-1-4.38-.19-.67-.39-1.34-.67-2.07-.27-.74-.57-1.5-1.12-2.52.38.14.1-.61-.39-1.29-.45-.7-1.11-1.27-.83-1.21-.16-.05-.3-.11-.46-.15-.17-.22-.41-.51-.69-.8-.3-.27-.61-.56-.91-.79-.6-.46-1.1-.76-.88-.75-.72-.25-1.45-.4-2.16-.48l-.12-.29c-.7-.19-1.62-.29-2.6-.28-.98.03-2.02.15-2.97.42-.96.24-1.85.61-2.54.9-.59.27-1.08.45-1.4.48-2.31,1.54-4.98,3.78-7.37,6.38-2.42,2.59-4.54,5.53-6.25,8.19-.29.87-1.2,2.46-1.86,3.73l-.98,1.21c-.59,1.34-.9,2.88-1.64,4.01-.03-.02-.03-.08,0-.18-.55,1.35-1.25,2.56-1.52,3.92-.62,1.46-1.33,2.84-1.42,2.28.4.33-1.26,3.12-1.26,3.12,0,0-.44,1.19-1.23,3.3-.37,1.05-.83,2.34-1.35,3.82-.51,1.45-1.09,3.19-1.71,4.74l-.06.15,3.43,1.38.02.02s.02.01.02.02c-.01,0-.01-.08-.01-.06,0,.03-.06.03.04.01-3.27.1,4.47-.14,3.67-.12v-.02s0-.05,0-.05v-.09s0-.19,0-.19c0-.5-.01-1.01-.02-1.52-.02-1.04-.03-2.11-.05-3.22,0-2.21-.02-4.57.05-7.02.09-4.9.33-10.2.92-15.55.3-2.67.68-5.35,1.18-7.96l.42-1.92c.15-.63.32-1.24.48-1.86.35-1.17.75-2.4,1.17-3.2.11-.26.18-.33.25-.46l.05-.09-.02.03s.01.03-.03,0l-.21-.16c-.27-.22-.52-.47-.76-.73l-1.18-1.43c-.06-.1-.05-.12-.05-.09,0,.03-.02.07-.02.05,0,0,.05-.04.05-.04,0,0,0,0-.05,0h-.07s-.04-.02-.04-.02l-2.95-.91v.03c-.42,1.25-.82,2.48-1.21,3.7-.41,1.21-.91,2.37-1.34,3.54-.43,1.17-1,2.25-1.47,3.36-2.03,4.34-4.36,8.1-6.63,11.13-2.25,3.04-4.43,5.33-6.03,6.95-.33.57-1.63,1.65-.94,1.53-1.04.81-1.79.69-1.81.98.69-.28.72-.12.67.12-.03.21-.07.49.77.16-.31.22-.64.43-.94.61-.13.3,1.23-.93,1.15-.52l.02-.56c.81-.45,1.28-.66,1.64-.74.61-.68.67-1.48,2.41-2.64l-.41.41c1.26-1.15.98-.47,1.3-.65l-.29.25c.42-.26.82-.53,1.22-.82-.88.68-2.02,2.13-1.32,1.49,1.63-1.28-.48.27.64-.8.68-.68.65-.32.72-.18l1.23-1.23c.11.19-.83.8-.17.46.48-.56.9-1.17,1.34-1.76.71.08,1.36-1.97,2.39-2.43-.9,1.31.23,0,.21.31.82-1.01,1.53-2.11,2.3-3.16.28-.26-.46.93-.14.43.57-.51.55-1.09.78-1.41.31-.21,1.57-2.46,1.8-2.2,1.51-2.21.16-1.19,1.52-3.27.37-.18-.89,1.75-.16.9.41-.76.72-1.56,1.08-2.34,0,.26.1.61-.36,1.46,1.69-3.05,3.05-5.41,4.24-7.79.28-.6.55-1.2.83-1.8.13-.31.27-.61.4-.92l.2-.47c.06-.19.13-.16.25-.86.08-.56-.04-1.21-.34-1.73-.3-.52-.74-.93-1.28-1.18-.53-.25-1.18-.35-1.82-.22-.32.07-.61.19-.88.34-.12.08-.24.16-.36.25-.09.07-.11.11-.18.17-.21.21-.41.43-.61.66-.16.21-.27.41-.4.61-.28.42-.45.82-.64,1.24-.35.41-.31.22-.15-.16.08-.19.18-.43.28-.67.12-.25.26-.51.34-.71-.76,1.34-1.08,2.3-1.49,3.2-.36.87-.69,1.65-1.01,2.41-.61,1.5-1.19,2.93-1.55,4.92l.2.11c-1.74,5.42-1.92,12.14-2.46,18.33l.18-.74c.18.86.13,2.25.2,3.27-.11.15-.45-.75-.39,1.05.08-.37.18-1.13.28-.9-.35,2.66-.52,6.81-.49,11.38.01,1.14.02,2.31.03,3.49v.22s0,.06,0,.06v.19c.03.35.11.73.26,1.11.29.76.86,1.42,1.51,1.81.65.4,1.38.6,2.16.56.77-.03,1.65-.34,2.31-.93.33-.29.59-.63.78-.96l.13-.25.09-.2.02-.06.18-.46c.24-.6.45-1.18.66-1.75.82-2.26,1.56-4.42,2.33-6.41,1.8-5.46,4.01-10.99,6.75-16.1,2.72-5.11,6-9.8,9.72-13.27-1.11,1.09-1.02.23-.05-.47,1.5-.74,2.56-1.51,3.66-2.3.28-.18.56-.36.85-.54.13-.08.31-.2.41-.25l.33-.16c.45-.18.97-.26,1.47-.15.89-.17,1.67.08,2.19.45.26.19.45.44.62.72.09.14.15.3.22.47.08.21.17.47.25.77.34,1.18.61,2.57.87,3.96.26,1.4.52,2.83.83,4.29l-.24.14c-.04.89.16,1.11.24,2.03l-.07-.02c.04,2.19.32,4.84.16,6.1l.29.09c-.01,1.31-.24.67-.13,2.01l-.14-.05.17,1.56c-.47-.19-.38,3.63-.82,4.59-.16,1.63-.61,4.74-1.58,6.88-.21.15-.55.9-1.04,1.71-.47.82-1.06,1.7-1.6,2.22l-.17.22-.04.06c.6.53,1.2,1.06,1.81,1.59l.04.04s0,0,0-.03c0-.04,0-.04,0,0-.02.04-.06.05.03,0h.04s0-.01,0-.01c-1.97.65,2.69-.88,2.21-.72h0s0,0,0,0v-.02s-.02-.04-.02-.04l-.05-.16-.1-.33c-.08-.21-.12-.47-.17-.71-.13-.47-.18-1.01-.26-1.54-.25-2.16-.12-4.62.33-6.93l-.34.03c.04-.41.12-.82.2-1.23.07.03.14-.13.13.07.29-.44.4-1.14.51-1.86.15-.71.29-1.44.54-1.9-.46.53-.28.84-.48,1.53-.43.96-.47-.07.06-1.39l.06.05.09-.97c.26-.03.67-.82.95-.85,1.27-3.97,2.07-6.83,4.23-10.72.04.54,1.43-2.86,1.45-1.83,1.18-2.41-.58.18-.27-1.05.39-.64.67-1.4.9-1.42-.08.36.57-.37.3.18l.88-1.57c.12-.13-.02.25-.09.44,1.67-3.28,3.73-5.33,5.42-8.17,0-.3-.8,1.04-.81.74.81-1.47,1.3-2.02,1.78-2.55.24-.26.49-.52.79-.91.15-.19.32-.42.48-.66.14-.21.3-.46.48-.75l-.14.6c.38-.79.46-1.28,1.57-2.17.38.02-.64,1.02-.95,1.67.3-.37.84-1.03,1.24-1.52.39-.48.63-.79.28-.66.74-.82,1.2-.8,1.61-.98-.01-.03-.2.04-.36.07-.16.05-.27.05-.08-.17.54-.31,1.28-.53,1.29-.48.07,0,.13.04.19.06.07.04.06.04.22.21-.06.04-.1.17-.17.13.18.04.31.17.4.29.09.1.12.28.16.43.04.15.07.34.15.59.08.23.19.57.4,1Z"/><path d="m405.85,290.09c.24-.1.47-.23.7-.36-.03-.05-.04-.14.22-.39-.31.24-.6.54-.92.75Z"/><path d="m424.36,253.43c0-.12,0-.23,0-.34-.04.22-.02.3,0,.34Z"/><path d="m425.96,242.92c-.07.76.12.11.26-.25-.05-.03-.13-.02-.26.25Z"/><path d="m397.04,286.84c-.1.07-.16.13-.12.18.13-.11.15-.16.12-.18Z"/><path d="m395.49,313.81s-.08.05-.14.08c.04,0,.09-.04.14-.08Z"/><path d="m394.32,315.65c.04.11.07.25.2.42-.07-.19-.11-.32-.2-.42Z"/><path d="m399.37,292.27c.23,0,.46-.01.65-.07-.35,0-.53.03-.65.07Z"/><path d="m394.82,316.44c.1.15.21.31.34.43.02-.01.04-.02.06-.04-.15-.11-.28-.25-.41-.39Z"/><path d="m395.96,313.45c-.15.1-.34.26-.48.37.24-.13.38-.23.48-.37Z"/><path d="m416.14,296.71s-.02-.05-.03-.08c-.35-.52-.12-.19.03.08Z"/><polygon points="397.05 316.83 397.1 316.83 397.24 316.74 397.05 316.83"/><path d="m398.65,312.35c-.14.05-.27.09-.36.16.12-.02.26-.05.43-.09-.05-.02-.07-.05-.07-.07Z"/><path d="m411.36,308.1c-.07.27-.07.39-.03.43.18-.24.26-.42.03-.43Z"/><path d="m411.52,88.6s-.07,0-.13,0c.05,0,.1,0,.13,0Z"/><path d="m410.68,90.05l-.06-.02s.03.02.06.02Z"/><path d="m411.88,87.73s.02,0,.03,0c0-.01.01-.03.02-.06l-.05.06Z"/><path d="m409.73,93.15v-.02s-.02.01,0,.02Z"/><path d="m410.37,91.32c.05,0,.07.02.09.02,0-.01,0-.02-.09-.02Z"/><path d="m414.7,87.27l-.19.02c.08,0,.17,0,.19-.02Z"/><path d="m413.93,86.39s-.03,0-.04,0c.02,0,.03,0,.04,0Z"/><path d="m413.17,86.73s.05.02.08.02c0-.01,0-.02-.08-.02Z"/><path d="m413.3,86.77s-.03,0-.05-.01c0,0,.01.01.05.01Z"/><path d="m410.67,104.4s.14.05.26.07l-.26-.07Z"/><path d="m409.62,95.96h-.08s.05,0,.08,0Z"/><path d="m412.33,104.43l-.04.02s.04-.01.04-.02Z"/><path d="m415.21,87.74c.19.03-.04.08.15.08-.03-.03.11-.07-.15-.08Z"/><path d="m416.67,96.55v.02s0-.01,0-.02Z"/><path d="m412.33,104.43l.04-.02s-.06,0-.09,0c.03,0,.04,0,.05.01Z"/><path d="m409.54,98.88h0s-.02,0-.03,0h.03Z"/><path d="m409.24,99.03s-.04-.02-.06-.03c-.02.02.01.03.06.03Z"/><path d="m410.93,104.47l.15.04s-.08-.03-.15-.04Z"/><path d="m409.51,100.7s-.01-.01-.02-.02c0,0,0,.01.02.02Z"/><path d="m410.48,91.2s.03,0,.04-.01c-.04,0-.07,0-.04.01Z"/><polygon points="415.44 92.35 415.44 92.35 415.45 92.35 415.44 92.35"/><path d="m415.21,92.29s.09.05.23.06c0-.02-.04-.04-.23-.06Z"/><path d="m415.35,92.48s.01,0,.02,0c-.01,0-.02,0-.02,0Z"/><path d="m415.72,91.25s-.01,0-.02,0c0,0,.01,0,.02,0h0Z"/><path d="m415.75,91.49s-.06.01-.08.02c.04,0,.07,0,.08-.02Z"/><polygon points="415.88 93.1 415.87 93.1 415.87 93.1 415.88 93.1"/><path d="m417.26,95.41c-.11-.23-.49-.53-.38-.76-.39-.05-.4-.12-.48-.2h.51s-.16-.07-.16-.07c.15-.02.1.05.29,0l-.32-.02c.18,0,.12-.16.49-.05v-.24c.02-.05-.42-.03-.3-.09.15-.01.1.02.29.02.38-.17-.99-.2-.76-.36h.07c-.14-.01-.12-.07-.19-.07-.52.02.28.03-.02.08-.43,0-.23-.06-.56-.06.16-.04-.09-.06-.12-.09.27-.06.08-.14.42-.18-.14-.03-.56-.06-.58-.12.34-.04.32.01.45-.05h-.25c.04-.06.11-.05.23-.05.01-.05-.35-.04-.18-.11l.24.04c-.1-.05-.05-.07-.03-.13.14,0,.13.03.09.05.37-.04-.16-.06-.12-.08-.11,0-.16.05-.41.03.05-.03-.34-.07-.04-.09l.24.04c-.19-.07-.31-.04-.22-.11.02,0,.08,0,.13,0-.32-.05-.03-.11,0-.19h.07c-.09-.02-.31-.03-.29-.05-.15.04-.22.03-.46.03.42-.06-.48-.08-.23-.17.14,0,.32.02.17.05.43.03.79.03.99.09-.1-.03-.16-.07.02-.07h-.4s.01-.05.01-.06c-.25,0-.41.04-.57,0-.13-.05.41-.03.23-.04-.16-.07-.43-.03-.29-.1.03,0,.1.02.06.03.16-.05-.07-.13.41-.14.11,0,.25,0,.21.03h-.07c.35.06-.09-.05.34-.03-.26,0-.2-.07-.15-.1h-.29c-.87-.1.58.02.47-.09-.2-.07-.08.03-.29-.02.05-.05.31-.06.19-.13.12-.02.27-.06.6-.06-.13-.04.15-.12-.17-.15-.27.07.34.07-.08.15l-.32-.02c.02-.06-.14-.13-.03-.17-.06,0-.14.01-.21,0-.12-.08-.44-.1-.34-.18.29-.01.24.04.27.07.23-.05.02-.05.11-.13.26,0-.02.05.23.06l-.08-.09s.03,0,.05,0c-.43-.01.04-.07-.09-.12,0-.13-.57-.14-.91-.21.12-.02.22-.02.33-.02-.19.03-.04.03.07.04-.04-.04.42-.09.59-.07-.12-.07-.23.02-.36-.02l.03-.09c-.22.01-.27.04-.43,0-.06-.04-.02-.06,0-.11.11,0,.33-.02.32.02.08-.03.09-.07-.12-.08-.2.06-.19-.09-.53-.05l.2-.06s.14.01.1.03c.33-.02-.09-.05-.12-.07.06-.02.09-.07.22-.08-.09-.02-.02-.06.15-.07-.07-.03-.22,0-.32-.01l.03-.09c.18,0,.69-.01.76,0-.17-.03-.54-.01-.52-.07.35.03.27-.07.7-.03.26-.03.25-.12.16-.16-.28-.03-.16.05-.45.05-.1-.13-.9-.14-.76-.24l-.08.03c-.16-.06-.13-.05-.37-.09.36.02.96-.07.89-.17-.18,0-.34.06-.63.04l-.05-.07s.09,0,.13.01c-.13-.06.47-.11.05-.13l.53-.06-.22.02c-.18,0-.23-.08-.3-.09-.2-.07-.04-.09.19-.13-.15.01-.48.04-.54-.01.58,0,.22-.11.52-.11,0-.02.17-.06-.07-.06h.36c-.51,0-.48-.08-.57-.14.69.01-.05-.07.57-.09-.47-.01-.18-.11-.58-.12-.02-.05.41-.04.56-.05l-.17-.02c.22-.02.25-.11.4-.16l-.41-.05.19-.02c-.1,0-.17-.05-.32-.02l.02-.03c-.45,0-.12-.04-.31-.09.07-.01.18,0,.24,0,0-.03.23-.01.39-.03-.12.02-.81-.09-1.01-.02-.18,0-.32-.04-.24-.06l.4-.02-.43-.03c-.06-.04.2-.06.25-.09.02.03.78.07.77-.01.05.05.28.07.36.09.02-.02.06-.03.23,0-.12-.07-.25-.02-.3-.09.36,0,.48-.01.6-.07l-.27.04s-.08,0-.1,0c-.04.02-.1.02-.23.02,0-.01-.45-.08-.23-.09-.56.07-.43-.12-.77-.07-.1,0-.13-.05.06-.06.27.06.41-.04.66-.03-.1-.02-.27.04-.4.02-.02-.03.2-.06.31-.08h.07s.16-.04.16-.04c-.18,0-.31.05-.4,0,.08-.01-.02-.06.13-.06.25.02.58,0,.64.05-.03-.03-.07-.14-.41-.1v-.04c-.14.02-.42.09-.46.02h.07s-.27-.05-.27-.05l.19-.02c-.09,0-.18,0-.17-.03.11,0,.15-.02.3-.02-.02-.06-.2-.05-.31-.06-.03-.03.05-.05.26-.03.05-.05,0-.13.19-.16-.16-.06-.08.01-.32-.02.63-.05.24-.2.17-.3-.55.03-.06-.03-.56-.05.17.02.43-.09.58,0l-.06-.05c.3-.04.23.09.64.03-.02-.06-.62-.1-.42-.17.39.02-.13-.05.3-.04.14.01.1.03.13.05h.08c.11-.14-.46-.05-.73-.12-.05-.08.31-.06.49-.07.08-.01.02-.05-.09-.07.24.05-.25.09-.49.07.45-.04.04-.12-.14-.14-.47.11-.02.08-.53.19.14.01.54.01.38.08-.2-.04-.22,0-.29.01.23-.01.1.04.19.06-.19.02-.53-.04-.62.03h.54c-.08.04-.4,0-.27.06-.28-.03-.44,0-.52-.06-.46.09.25.13.44.2-.03,0-.11,0-.14-.01.14.01.13.04.17.06-.12.04-.24-.04-.39-.02v.07s-.01,0-.02,0c.07.02.12.04-.01.04-.17-.02-.35-.03-.49-.04l.38.08c-.18,0-.31.06-.44,0l.07.11h-.37c.06.04.14.04.18,0-.08.04.64.17-.08.15.3.09.18.12.36.23-.33-.08-.43.09-.58,0-.16.05.23.06.29.1-.16.04-.51.02-.65-.02l.17.05h-.07s.21.04.21.04c-.2.04-.37,0-.42.06h.32s-.19.04-.19.04c.15-.01.21.02.24.05h-.07s.06.04.06.04c-.2-.04-.07.04-.3.02-.02.03-.01.04.05.1h.22c.19.07-.33,0-.35.06h.25c-.43.09.24.16-.04.23-.06-.04-.35-.03-.28-.03.09.06.02.16.33.22-.37.02-.48.03-.64.09.02.05.06.05.27.07-.14.05.07.13-.2.13.21.01-.04.04.14.07h-.11s.25,0,.25,0c-.57.08.32.14-.18.22h-.07s.1.02.1.02c-.11,0-.18,0-.32-.01l-.05.16.19-.03s.27.06.12.09c-.38-.06-.02.05-.31.06l-.1-.03s.02.05.28.04c.09.06-.49.04-.21.1v-.04c.16-.01.37.02.36.04-.04,0-.15.02-.18,0,.1.05-.04.12.07.14-.08.03-.26.02-.33,0,.22.1-.05.05.17.15h-.14s.17.03.17.03l-.31.05.19-.02s.13.05.04.09l-.21-.02c.12.09-.36.11-.06.2-.04,0-.11,0-.14-.01.34.08-.38.06.03.15-.07,0-.16,0-.22,0l.14.04h-.29s.43.03.43.03l-.3.02h.14c-.55.06-.14.11-.55.17h.37c.75.13-.43.31-.08.48h-.29s.34.07.34.07c-.23.04-.25-.02-.4-.01.16.07.43.03.51.12-.19.04-.21-.02-.32-.04.14.08.3.2.14.26.04,0,.09,0,.11,0,.13.05,0,.13.02.19-.13,0-.15-.02-.18-.03-.02.02-.11.05.03.07l-.25-.02c-.05.05.18.13-.12.14.11,0,.33,0,.31.04-.44.02.19.11-.05.17-.1,0-.13-.05-.13-.04-.12.03.09.06.23.09h-.18s.24.14.24.14c-.44.02.06.14-.26.13-.02.05.19-.04.25.02-.19.02.09.06-.2.06h-.03s.02.04.02.04l-.28-.03c.06.04.34.07.56.07-.16.04-.03.09-.29.11h-.07c.11.09-.78.16-.3.25-.04,0-.11,0-.11,0l-.02.07-.21-.02.33.11h-.14c-.06.07.02.18.06.28h-.07c.22.09-.14.08.02.16-.04,0-.05,0-.06,0v.07s-.13-.01-.13-.01c.31.05-.41.14-.14.11.14.03.3.08.48.08.02.07-.19.02-.31.06-.02.05.23.06.1.13h-.14s.13.05.15.1h-.07c.3.06-.43.08.21.14-.12.03-.03.09-.32.09.19.09.27.17.39.26-.48.02.03.02-.24.08h.25c.03.13-.6.28-.49.43h-.26s.28.03.28.03c-.12.16-.22.36-.22.49.13.04.44.1.35.17h-.04c.15.11.25.23.11.35-.11,0-.18,0-.25,0,.28.03.01.07,0,.1l.19-.03c.24.04,0,.09-.18.1l.27.06s-.06,0-.11.01h.13s-.34.04-.34.04c.07.01.15.09.48.11-.11,0-.2.06-.26.02l-.1.2.12-.03c.25,0,.42.06.3.09-.21-.04-.36,0-.55.01.14.03.23-.02.37,0,.17.03.26.11.14.13l-.1-.02c.09.05-.35.07-.33.12.21.04.02.07.45.06.09.06-.3.02-.34.04.21.03.07.11-.15.12.64.03-.23.16.31.18l-.3.05c.14,0,.47.01.53.05-.16.04-.41.03-.56.04l.54.03c-.58.22-.19.51-.67.75.11.11.36.24.29.37h-.07s-.15.11-.15.11l.25-.09c.06.03.17.05.16.07-.22.14-.5.32-.22.49.62.11-.55.07-.1.18-.06,0-.14-.01-.21-.02.21.11.31.17.67.28-.61-.01.01.07-.31.06h.25c-.15.03-.21.09-.38.08l.31.05h-.26c-.02.07.19.21-.33.25.38.16.27.42.17.62.21.03.23.09.25.13l-.3.05c.09.05.48.1.28.14-.04,0-.06,0-.08,0,.06.05-.1.09.18.14-.02.05-.18.1-.46.09.51,0-.07.11-.07.11,0,0-1.23,2.7,1.51,3.36.25.02.41.08.71.06.09.05-.35.07-.1.08.17-.06.65.02.96-.04l.06.04c.18,0-.2-.05.12-.05h-.47c.07-.04.17-.06.33-.07-.18-.03-.81-.05-.54-.12l.03.02c-.02-.06.3-.04.38-.05h0s.23-.04.23-.04c-.16.04.22.1.19.07.13-.07-.11.02-.17-.04-.02-.03.22-.02.37-.02l-.02-.06c.22,0-.01.04.21.02l-.23-.08c.55-.01-.26-.08.25-.12.13.05.18,0,.36,0l-.03-.13c.08-.01.17.03.14.01.15-.02-.13-.04-.13-.05.15-.01,0-.1.36-.1.24-.09-.46-.04-.25-.12.22-.01.05.07.28.03l-.08-.09c.11,0,.36.02.31.05.29-.23,1.45-.36,1.16-.58.26-.03.18.02.35.04-.35-.16.58-.22.54-.35h-.22c.67-.19.27-.41.55-.62l-.15.02c-.21-.03-.23-.08-.33-.11.11,0,.46.02.37-.04-.08.01-.16.04-.26.03.56-.18.43-.56.7-.85-.17-.4.26-.83.12-1.22.02.06-.52.03-.39-.01.91-.12-.15-.21.47-.34-.29-.23.5-.43-.2-.64h.26c.12-.04-.06-.04-.09-.08h.07c.1-.08-.16-.17-.04-.22h-.29s.22-.03.06-.07h.14s-.27-.05-.27-.05c.51,0,.04-.13.27-.17-.09-.06-.31-.17-.21-.27.26-.02.26-.13.39-.2-.06-.14-.15-.34-.06-.52h-.33s-.02-.04-.02-.04c.07,0,.11,0,.14,0,.37-.04-.11-.11.12-.14-.3.02-.05.03-.05.06-.16.04-.47,0-.31-.05h.07s-.17-.03-.17-.03c.26,0,.38-.04.63-.04-.06-.15-.5-.26-.38-.41.29.02-.07-.11.42-.08-.19-.09-.4.02-.75-.03,0-.03-.13-.05.06-.06.12.01.3-.02.35,0l-.04-.06s.11,0,.14.01c-.29-.13.32-.23.04-.34-.18,0-.05.05-.23.04-.36-.12.32-.1.07-.21l.25.02c-.17-.03-.38-.05-.18-.11.29-.01.24.05.38.08.01-.04-.06-.14-.33-.11-.1-.05.16-.06.24-.09-.07,0-.19.04-.33.02.16-.06.16-.16.18-.24.07,0,.18,0,.22,0-.38-.06.27-.06.19-.14Z"/><path d="m415.77,91.21l-.04.03c.06,0,.14,0,.21.02l-.17-.05Z"/><path d="m415.58,92.72s.04,0,.08.01c-.01,0-.05-.01-.08-.01Z"/><path d="m416.09,93.09c-.06-.03-.14,0-.22,0,.06,0,.13,0,.22,0Z"/><path d="m415,90.36s.07,0,.13,0c-.05,0-.09,0-.13,0Z"/><path d="m415.21,88s-.02,0-.04,0c.02,0,.04,0,.04,0Z"/><path d="m414.75,88.13s0,.01.04.03c.02-.01,0-.02-.04-.03Z"/><path d="m415.1,90.93s.03.02.09.02c0-.01-.05-.02-.09-.02Z"/><path d="m414.86,88.19l-.03.03s.03,0,.06,0l-.03-.03Z"/><path d="m415.24,87.96s0,.03-.04.04c.08-.02.08-.03.04-.04Z"/><path d="m414.62,89.49s0,0,0,0c.12.03.07,0,0,0Z"/><polygon points="415.35 88.33 415.34 88.33 415.42 88.34 415.35 88.33"/><path d="m415.36,87.82s.02.01.05.02c.01,0,.02-.01.03-.02-.04,0-.06,0-.09,0Z"/><path d="m415.07,89c-.11,0-.18-.01-.24-.01,0,.01.05.02.24.01Z"/><path d="m345.55,106.01s-.07.03-.12.05c.05-.02.09-.04.12-.05Z"/><path d="m345.37,107.68h-.06s.04.01.06,0Z"/><path d="m345.53,105.07s.02,0,.03-.01c0-.01,0-.03,0-.07l-.03.08Z"/><path d="m345.76,110.9v-.02s-.02.02,0,.02Z"/><path d="m345.6,108.96c.05-.02.07-.02.09-.01,0-.01-.01-.02-.09.01Z"/><path d="m347.92,103.51l-.17.1c.08-.03.15-.08.17-.1Z"/><path d="m346.86,103.01s-.02.01-.04.02c.02,0,.03-.01.04-.02Z"/><path d="m346.3,103.64s.05,0,.09-.01c0,0-.02-.02-.09.01Z"/><path d="m346.43,103.62s-.03,0-.05,0c0,0,.02,0,.05,0Z"/><path d="m351.18,120.8s.14-.01.26-.04l-.26.04Z"/><path d="m346.8,113.51l-.07.03s.05-.02.07-.03Z"/><path d="m352.71,120.16l-.03.03s.03-.03.03-.03Z"/><path d="m348.58,103.73c.18-.05,0,.09.16.01-.04-.01.08-.1-.16-.01Z"/><path d="m353.48,111.19h.02s0,0-.02,0Z"/><path d="m352.71,120.16l.03-.04s-.06.03-.08.04c.03,0,.04,0,.05,0Z"/><path d="m347.91,116.21s0,0,0,0c-.01,0-.02,0-.03,0h.03Z"/><path d="m347.69,116.47s-.04,0-.07,0c-.01.02.02.02.07,0Z"/><path d="m351.44,120.76l.15-.02s-.08,0-.15.02Z"/><path d="m348.62,117.89s-.01,0-.03,0c0,0,0,0,.03,0Z"/><path d="m345.65,108.81s.02-.02.03-.03c-.04.02-.07.03-.03.03Z"/><polygon points="350.66 107.85 350.66 107.85 350.66 107.85 350.66 107.85"/><path d="m350.42,107.89s.1,0,.24-.04c0-.02-.05-.02-.24.04Z"/><path d="m350.62,108.01s.01,0,.02-.02c-.01,0-.02.01-.02.02Z"/><path d="m350.46,106.73s-.01,0-.02,0c0,0,.01,0,.02,0h0Z"/><path d="m350.59,106.94s-.05.04-.07.05c.03-.02.06-.04.07-.05Z"/><polygon points="351.35 108.36 351.35 108.36 351.35 108.36 351.35 108.36"/><path d="m353.55,109.91c-.19-.17-.66-.29-.66-.54-.37.11-.41.05-.52.02l.46-.21h-.17c.13-.07.11.01.27-.1l-.3.11c.17-.08.05-.19.42-.25l-.09-.22c0-.05-.4.14-.31.04.13-.07.1-.02.27-.1.28-.31-.99.22-.84-.03l.07-.02c-.14.03-.14-.03-.21,0-.46.23.27-.09,0,.08-.4.17-.24.04-.54.17.13-.1-.11-.02-.14-.04.23-.16.02-.16.31-.33-.14.03-.54.17-.58.13.29-.18.3-.12.39-.23l-.23.09c.02-.06.08-.08.19-.13-.01-.05-.33.1-.21-.02l.24-.07c-.11,0-.08-.04-.08-.11.13-.06.13-.03.1,0,.33-.18-.17,0-.14-.02-.1.05-.12.11-.36.19.03-.05-.34.07-.08-.07l.24-.07c-.21.02-.3.09-.24-.02.02,0,.08-.03.12-.05-.31.09-.07-.09-.08-.17h.07c-.09,0-.3.07-.29.05-.12.1-.19.12-.41.22.36-.22-.47.12-.29-.06.13-.06.3-.11.17-.02.4-.14.73-.29.94-.32-.1,0-.17,0,0-.07l-.37.15s0-.04,0-.05c-.23.09-.36.2-.53.23-.14,0,.36-.19.19-.13-.17,0-.4.14-.31.03.03,0,.1-.02.07,0,.13-.11-.12-.09.31-.29.1-.04.23-.09.2-.06l-.07.03c.34-.09-.1,0,.29-.16-.23.11-.21.02-.18-.03l-.26.13c-.84.25.53-.23.39-.28-.21.02-.06.06-.27.1.03-.06.26-.18.12-.19.1-.06.23-.16.52-.3-.14.02.08-.17-.22-.06-.22.18.34-.08-.02.17l-.3.11c0-.06-.18-.06-.09-.14-.05.03-.13.07-.19.09-.14-.02-.44.08-.39-.03.26-.13.24-.07.27-.05.19-.14,0-.06.05-.17.23-.11,0,.05.24-.04l-.11-.05s.03-.01.05-.02c-.4.16,0-.08-.13-.07-.05-.12-.58.1-.92.17.1-.06.2-.11.3-.15-.16.11-.03.04.08,0-.06-.02.35-.25.51-.3-.14-.01-.2.11-.33.13v-.1c-.21.1-.24.15-.41.17-.07-.01-.04-.05-.05-.1.1-.04.3-.15.3-.11.07-.06.06-.1-.14-.03-.16.13-.21-.01-.5.17l.16-.13s.13-.04.1,0c.3-.15-.1,0-.14-.01.05-.04.06-.1.17-.16-.09.02-.04-.05.11-.13-.07,0-.2.09-.3.12v-.1c.16-.08.62-.29.69-.31-.17.04-.5.21-.51.15.34-.12.22-.17.63-.31.23-.13.18-.21.08-.21-.27.09-.13.11-.39.23-.15-.08-.88.24-.79.09l-.06.06c-.17.01-.14,0-.38.07.33-.13.85-.45.74-.52-.17.07-.29.19-.56.29l-.08-.04s.08-.03.13-.04c-.14,0,.38-.29,0-.14l.46-.27-.2.11c-.17.06-.24.02-.31.04-.21.02-.08-.07.12-.19-.13.07-.43.23-.5.21.53-.24.15-.19.43-.31-.02-.02.14-.13-.09-.03l.33-.14c-.46.2-.47.12-.58.1.63-.27-.07-.04.49-.32-.43.18-.21-.02-.58.13-.04-.03.36-.21.49-.28l-.17.05c.19-.11.19-.2.3-.31l-.4.12.16-.09c-.1.04-.17.02-.3.11v-.03c-.4.18-.12.02-.31.05.06-.04.16-.08.22-.09,0-.03.21-.11.34-.18-.1.06-.77.24-.93.39-.17.08-.3.1-.24.04l.36-.18-.4.14c-.07-.01.16-.13.19-.18.04.02.74-.25.7-.32.07.02.28-.05.37-.06,0-.02.04-.05.21-.09-.14-.01-.24.08-.31.04.33-.14.43-.21.52-.31l-.23.15s-.07.03-.09.03c-.03.03-.08.06-.2.12,0-.01-.44.11-.24.01-.49.29-.44.07-.74.25-.1.04-.14,0,.03-.08.27-.06.36-.21.59-.3-.1.02-.23.15-.36.18-.04-.02.16-.13.25-.2h.07s.13-.13.13-.13c-.17.07-.26.17-.36.16.06-.04-.04-.05.09-.1.24-.08.53-.23.6-.22-.04-.02-.12-.1-.41.08v-.04c-.13.08-.36.26-.43.21l.07-.03-.27.06.16-.1c-.08.04-.16.06-.17.04.1-.05.13-.08.26-.14-.04-.05-.21.03-.31.07-.04-.02.03-.06.23-.13.03-.06-.05-.12.11-.22-.17,0-.06.04-.3.11.56-.3.14-.28.03-.34-.49.25-.07,0-.53.19.17-.05.35-.26.53-.24l-.07-.03c.26-.16.24-.01.6-.23-.04-.05-.61.16-.45.01.37-.14-.14,0,.26-.16.13-.04.1,0,.14,0l.06-.04c.05-.17-.44.15-.71.2-.08-.05.26-.18.42-.26.06-.04,0-.05-.11-.03.24-.05-.19.18-.42.26.39-.21-.01-.12-.18-.07-.38.3.01.08-.41.38.13-.04.5-.21.37-.08-.2.04-.2.09-.26.13.21-.1.11,0,.2-.02-.16.09-.5.18-.56.28l.5-.21c-.06.06-.37.15-.23.15-.27.09-.4.19-.5.15-.39.27.28.02.49,0-.03,0-.1.04-.14.04.14-.04.14-.02.18-.01-.09.09-.24.07-.37.14l.04.06s-.02.01-.03.02c.08-.01.13-.02,0,.05-.17.05-.34.12-.47.16l.37-.08c-.17.06-.26.18-.4.19l.11.07-.33.16c.07,0,.14-.03.16-.08-.06.07.65-.1-.01.17.31-.04.21.04.42.06-.34.06-.35.26-.53.24-.13.11.24-.04.31-.03-.13.1-.46.23-.6.24l.17-.02-.07.03.2-.04c-.16.12-.33.16-.36.22l.3-.12-.16.1c.13-.07.2-.07.24-.05l-.07.03h.07c-.19.06-.05.07-.27.15,0,.04,0,.04.08.07l.2-.1c.21,0-.3.14-.29.2l.23-.11c-.35.26.28.05.06.23-.07-.01-.34.12-.27.09.11.02.09.14.39.07-.33.17-.43.22-.55.35.04.03.07.03.27-.05-.11.1.11.09-.13.2.2-.08-.02.05.15,0l-.1.05.23-.11c-.49.3.35,0-.07.27h-.07s.1,0,.1,0c-.1.05-.17.06-.3.12l.02.16.16-.11s.27-.06.14.04c-.37.1,0,.05-.26.18h-.1s.04.04.27-.06c.11.02-.43.23-.15.17v-.04c.13-.07.33-.13.33-.1-.03.02-.13.08-.17.08.11,0,.02.12.12.1-.06.06-.23.12-.3.14.24,0-.03.06.22.07l-.13.06.17-.04-.26.17.16-.09s.14,0,.08.07l-.2.07c.15.04-.28.25.02.21-.03.02-.1.04-.13.04.34-.06-.32.21.08.12-.07.02-.15.07-.2.09l.14-.02-.27.11.4-.14-.26.14.13-.04c-.49.26-.09.15-.44.36l.33-.16c.75-.18-.26.46.13.48l-.27.11.34-.07c-.19.13-.23.08-.37.15.18,0,.4-.14.51-.1-.16.12-.2.07-.3.09.16.02.36.06.23.18.04-.01.08-.03.1-.04.14,0,.05.12.09.16-.12.05-.15.05-.18.05,0,.03-.08.09.05.05l-.24.08c-.03.06.22.05-.05.18.1-.05.3-.14.3-.09-.4.2.21.02.02.18-.1.04-.14,0-.14.02-.09.08.11.02.24-.01l-.17.06.28.04c-.39.2.12.1-.18.22,0,.05.16-.12.23-.08-.16.09.11.02-.16.13h-.03s.04.04.04.04l-.27.09c.07.01.34-.08.54-.16-.13.1.01.1-.22.22h-.07c.15.07-.64.49-.17.37-.03.02-.1.05-.1.04v.07s-.19.07-.19.07l.34-.03-.13.06c-.02.09.09.16.17.23l-.07.02c.24,0-.09.15.09.15-.04.01-.05.02-.06.02l.03.06-.13.04c.3-.08-.31.29-.09.16.14-.03.31-.05.47-.12.04.06-.16.09-.26.18,0,.05.24-.04.15.08l-.13.06s.14,0,.18.03l-.07.02c.31-.05-.35.26.25.06-.09.08.01.1-.25.21.21.01.32.04.46.08-.43.21.04,0-.19.17l.23-.11c.08.11-.43.5-.28.59l-.23.11.27-.09c-.05.19-.06.42,0,.54.14-.02.44-.08.39.01h-.04c.18.05.33.12.24.29-.1.04-.17.08-.23.09.27-.09.04.06.05.09l.16-.11c.24-.07.04.07-.12.17l.27-.06s-.06.03-.09.05l.13-.05-.3.16c.07-.02.18.02.48-.09-.1.05-.16.13-.23.12v.23s.09-.08.09-.08c.23-.11.4-.12.31-.04-.2.05-.33.14-.5.24.14-.03.2-.11.33-.16.17-.04.28,0,.18.06l-.1.02c.1,0-.29.2-.25.24.2-.04.04.06.44-.13.11.02-.26.14-.29.18.2-.06.11.07-.09.17.6-.23-.15.24.35.04l-.26.17c.13-.06.43-.18.5-.17-.13.1-.36.19-.49.26l.5-.19c-.44.43.03.54-.31.95.15.05.43.07.41.22l-.07.02-.08.17.19-.18c.07,0,.17-.02.17,0-.15.22-.33.49,0,.53.61-.15-.47.29-.02.2-.06.01-.14.05-.2.06.23.02.35.03.73-.01-.56.24.04.06-.26.18l.23-.09c-.13.08-.15.16-.32.22l.3-.08-.23.11c0,.07.26.11-.2.35.42,0,.42.27.41.5.2-.06.24-.01.28.02l-.26.17c.1,0,.48-.1.31.02-.03.01-.06.02-.07.03.08.02-.05.13.22.05,0,.05-.12.17-.39.27.46-.2-.02.13-.02.13,0,0-.03,2.97,2.75,2.46.24-.08.41-.09.67-.23.1,0-.29.2-.06.11.13-.13.6-.24.86-.43h.07c.17-.05-.21.04.09-.08l-.43.18c.05-.06.13-.11.27-.19-.18.05-.77.28-.54.11h.03s.26-.15.33-.19h0s.19-.13.19-.13c-.13.1.24,0,.21-.02.09-.12-.1.06-.17.04-.04-.02.2-.11.33-.17l-.04-.05c.2-.09,0,.04.2-.07l-.24.02c.5-.24-.27.03.18-.21.14,0,.17-.08.33-.14l-.08-.11c.06-.04.17-.04.14-.04.13-.08-.14.02-.14,0,.13-.07-.05-.09.29-.23.19-.18-.44.15-.28,0,.2-.1.07.04.27-.09l-.11-.05c.1-.04.33-.13.3-.08.17-.33,1.18-.92.83-1,.23-.13.17-.05.34-.1-.38,0,.44-.43.36-.54l-.2.09c.54-.44.08-.48.26-.79l-.13.08c-.2.06-.24.03-.34.03.1-.05.43-.17.33-.18-.07.04-.13.1-.23.13.44-.39.16-.68.29-1.06-.31-.3-.1-.86-.38-1.17.04.05-.46.24-.37.15.78-.48-.22-.13.29-.5-.36-.09.28-.6-.44-.51l.23-.11c.09-.08-.07-.01-.11-.03l.07-.03c.06-.11-.22-.09-.13-.18l-.26.11s.19-.11.02-.09l.13-.06-.27.06c.46-.2-.02-.14.18-.26-.11-.02-.35-.03-.3-.16.23-.12.18-.22.27-.34-.12-.1-.27-.25-.26-.45l-.3.14-.04-.03c.07-.03.1-.05.13-.06.33-.18-.15-.05.05-.18-.26.14-.03.05-.03.08-.13.1-.43.19-.3.08l.07-.03-.17.04c.23-.11.33-.18.56-.29-.12-.11-.56-.03-.51-.22.27-.1-.11-.07.35-.25-.21-.01-.36.18-.7.28,0-.03-.14,0,.03-.08.11-.04.27-.14.32-.14l-.06-.04s.1-.04.13-.04c-.31,0,.2-.34-.11-.33-.17.06-.03.06-.2.13-.38.04.25-.22-.03-.22l.23-.08c-.17.04-.37.11-.21-.02.26-.13.24-.05.37-.08,0-.04-.11-.1-.34.03-.11,0,.12-.13.19-.18-.07.03-.16.12-.29.15.12-.13.08-.21.07-.3.07-.03.16-.08.2-.09-.37.1.23-.16.12-.21Z"/><path d="m350.49,106.68l-.03.05c.06-.03.13-.05.2-.07l-.17.02Z"/><path d="m350.93,108.13s.04-.01.08-.02c-.02,0-.05,0-.08.02Z"/><path d="m351.55,108.26c-.07,0-.13.05-.19.1.05-.02.12-.05.19-.1Z"/><path d="m349.44,106.21s.06-.02.12-.04c-.05.01-.09.03-.12.04Z"/><path d="m348.68,103.97s-.02.01-.04.03c.02-.01.03-.02.04-.03Z"/><path d="m348.31,104.28s.01.01.05,0c0-.02-.01-.02-.05,0Z"/><path d="m349.77,106.69s.04,0,.09-.01c-.01,0-.05,0-.09.01Z"/><path d="m348.43,104.28l-.02.04s.03-.01.05-.02l-.04-.02Z"/><path d="m348.69,103.92s0,.03-.02.05c.07-.05.06-.06.02-.05Z"/><path d="m348.75,105.57s0,0,0,0c.12-.03.07-.02,0,0Z"/><polygon points="348.94 104.21 348.94 104.22 349.01 104.2 348.94 104.21"/><path d="m348.74,103.74s.02,0,.06,0c0,0,.02-.02.02-.03-.03.02-.06.03-.08.04Z"/><path d="m348.96,104.94c-.1.04-.17.06-.22.08,0,0,.06,0,.22-.08Z"/><path d="m479.84,104.95s-.06-.04-.11-.07c.04.03.08.05.11.07Z"/><path d="m478.38,105.78l-.05-.05s.02.03.05.05Z"/><path d="m480.59,104.39s.02.01.03.02c.01,0,.03-.02.05-.04l-.08.02Z"/><path d="m475.99,107.96v-.02s-.01,0,0,.02Z"/><path d="m477.47,106.7s.06.05.07.07c.01,0,0-.02-.07-.07Z"/><path d="m483.26,105.42l-.18-.08c.07.04.15.08.18.08Z"/><path d="m483.04,104.27s-.02-.01-.04-.02c.01.01.03.02.04.02Z"/><path d="m482.21,104.18s.04.04.06.06c0-.01,0-.02-.06-.06Z"/><path d="m482.3,104.28s-.02-.02-.04-.03c0,0,0,.02.04.03Z"/><path d="m471.08,118.13s.09.11.19.19l-.19-.19Z"/><path d="m474.47,110.32l-.06-.04s.04.03.06.04Z"/><path d="m472.5,119h-.04s.04,0,.04,0Z"/><path d="m483.46,106.08c.15.12-.07.05.09.14-.01-.04.13,0-.09-.14Z"/><path d="m480.24,114.41v.02s0-.01,0-.02Z"/><path d="m472.5,119h.05s-.06-.02-.08-.04c.02.02.03.03.03.04Z"/><path d="m472.92,112.8s0,0,0,0c0,0-.02-.01-.03-.02l.03.02Z"/><path d="m472.58,112.78s-.02-.04-.04-.06c-.03,0,0,.03.04.06Z"/><path d="m471.27,118.32l.11.11s-.06-.06-.11-.11Z"/><path d="m471.97,114.36s0-.02-.01-.03c0,0,0,.01.01.03Z"/><path d="m477.62,106.66s.03,0,.04,0c-.04-.02-.06-.04-.04,0Z"/><polygon points="481.32 110.18 481.32 110.18 481.32 110.18 481.32 110.18"/><path d="m481.15,110.01s.06.09.17.17c0-.02-.02-.05-.17-.17Z"/><path d="m481.17,110.24s.01,0,.02,0c-.01,0-.02,0-.02,0Z"/><path d="m482.12,109.36s-.01,0-.02-.01c0,0,0,0,.01,0h0Z"/><path d="m482.02,109.59s-.06-.02-.08-.03c.03.02.06.03.08.03Z"/><polygon points="481.31 111.04 481.3 111.03 481.3 111.03 481.31 111.04"/><path d="m481.32,113.73c.02-.26-.15-.71.06-.85-.31-.24-.28-.31-.32-.42l.44.25-.11-.14c.15.06.06.09.25.15l-.26-.18c.16.09.18-.07.45.2l.12-.2s-.35-.24-.21-.23c.13.07.08.07.24.16.42.04-.75-.68-.47-.7l.05.05c-.1-.09-.06-.13-.12-.17-.45-.24.23.17-.06.06-.37-.22-.17-.17-.46-.34.15.05-.05-.1-.05-.14.26.09.14-.08.45.06-.1-.09-.45-.34-.44-.4.31.14.27.17.41.19l-.21-.14c.06-.02.11.02.22.08.04-.04-.28-.21-.1-.18l.19.15c-.06-.09-.01-.08.04-.13.12.07.1.09.06.09.34.16-.11-.13-.06-.13-.1-.05-.16-.04-.37-.18.06,0-.26-.23,0-.1l.19.15c-.13-.16-.25-.19-.13-.21.01.01.07.04.11.07-.25-.21.03-.11.09-.16l.05.05c-.06-.07-.24-.2-.22-.2-.15-.04-.2-.08-.41-.2.39.16-.37-.32-.11-.27.12.07.26.18.12.13.35.24.66.43.8.58-.07-.08-.1-.14.05-.05l-.34-.21s.03-.02.04-.04c-.21-.13-.38-.17-.49-.3-.08-.11.36.18.22.08-.1-.14-.35-.24-.2-.24.02.02.08.07.04.06.16.04,0-.14.42.09.09.06.21.13.17.13l-.06-.04c.27.22-.06-.09.3.15-.22-.13-.14-.16-.08-.16l-.26-.14c-.7-.54.5.3.45.15-.13-.16-.08-.02-.24-.16.07-.01.3.1.23-.02.11.04.26.09.55.25-.09-.1.19-.03-.07-.21-.27-.08.26.23-.15.09l-.26-.18s-.06-.18.06-.16c-.06-.02-.13-.06-.19-.1-.06-.13-.33-.31-.2-.33.26.14.19.15.2.19.23.08.04-.04.16-.06.22.13-.04.04.17.17l-.02-.12s.03.02.04.03c-.36-.23.07-.04-.02-.15.07-.11-.42-.41-.68-.65.11.04.21.09.29.15-.18-.07-.05,0,.04.07-.02-.06.41.13.54.24-.07-.12-.21-.09-.3-.2l.07-.06c-.19-.1-.25-.1-.37-.22-.03-.06.02-.06.06-.1.09.06.29.15.26.18.08.02.11,0-.06-.13-.2-.05-.11-.18-.43-.31l.2.05s.11.08.07.08c.29.15-.06-.09-.07-.12.07.02.12-.02.23.05-.07-.06.02-.06.17.02-.04-.06-.19-.11-.27-.17l.07-.06c.16.09.6.34.66.39-.13-.12-.46-.29-.42-.32.29.21.27.08.61.33.24.11.28.03.22-.06-.23-.17-.16-.04-.41-.19-.02-.17-.7-.58-.53-.59l-.08-.02c-.11-.14-.08-.11-.27-.27.3.2.87.43.85.31-.15-.1-.32-.13-.56-.29v-.08s.06.05.1.08c-.08-.12.46.14.11-.09l.48.21-.21-.09c-.15-.1-.16-.18-.21-.23-.13-.16.01-.1.23-.02-.13-.07-.44-.21-.46-.28.5.3.24.01.5.17,0-.02.18.04-.03-.09l.31.19c-.43-.26-.37-.32-.42-.41.58.36-.01-.08.54.21-.4-.25-.1-.19-.44-.4,0-.05.38.17.51.24l-.14-.11c.2.09.27.03.43.06l-.33-.25.17.08c-.09-.06-.12-.13-.26-.18h.03c-.39-.24-.09-.1-.23-.25.07.03.16.08.2.12.02-.02.21.11.35.17-.11-.04-.65-.49-.86-.53-.16-.09-.25-.19-.17-.17l.36.19-.35-.24c-.03-.06.2.05.26.05,0,.04.63.46.67.38.02.07.2.2.26.26.02,0,.06,0,.19.12-.07-.12-.2-.15-.21-.23.31.19.42.23.56.24l-.25-.1s-.06-.04-.08-.06c-.04,0-.09-.03-.21-.1,0,0-.35-.29-.15-.19-.52-.23-.31-.32-.63-.46-.09-.06-.08-.11.08-.02.21.19.38.17.59.31-.08-.07-.25-.1-.36-.19,0-.04.2.05.31.09l.05.05.17.04c-.15-.1-.29-.11-.35-.2.07.03.02-.06.14.01.2.15.49.3.53.36,0-.04.01-.15-.3-.29l.03-.03c-.14-.06-.42-.14-.42-.23l.06.04-.21-.19.17.07c-.08-.05-.15-.1-.13-.11.1.05.14.06.27.13.01-.06-.15-.15-.23-.21,0-.04.07-.01.24.11.06-.01.07-.11.25-.04-.11-.14-.07-.03-.26-.18.57.28.31-.05.3-.18-.49-.26-.04-.06-.46-.33.14.11.42.14.5.29l-.02-.07c.28.12.15.19.54.35.02-.06-.49-.4-.27-.36.32.22-.08-.11.28.12.11.08.07.08.08.11l.07.03c.16-.06-.38-.27-.57-.46,0-.09.3.1.46.19.07.03.04-.04-.04-.11.18.16-.26-.05-.46-.19.4.2.09-.08-.05-.19-.46-.14-.06.06-.55-.11.11.08.46.29.28.26-.15-.13-.19-.11-.25-.13.2.11.06.09.13.15-.17-.08-.44-.3-.55-.29l.46.29c-.08-.02-.34-.21-.25-.1-.23-.17-.38-.21-.42-.32-.44-.16.15.24.28.4-.03-.02-.09-.06-.11-.08.11.08.09.1.11.14-.13-.02-.19-.15-.33-.22l-.02.07s-.02-.01-.03-.02c.05.05.09.09-.03.03-.14-.11-.29-.21-.4-.29l.28.26c-.15-.1-.3-.1-.38-.21v.14s-.31-.18-.31-.18c.04.06.1.09.16.09-.09,0,.46.47-.15.09.21.23.09.2.2.38-.25-.24-.42-.14-.5-.29-.16-.04.17.17.2.24-.15-.05-.45-.24-.55-.35l.12.13-.06-.04.16.14c-.19-.06-.32-.18-.39-.16l.27.17-.18-.07c.13.07.18.12.18.16l-.06-.04.03.07c-.15-.13-.08,0-.27-.14-.03.02-.03.02,0,.11l.2.1c.12.17-.28-.16-.33-.12l.22.13c-.42-.14.12.26-.15.18-.03-.06-.29-.21-.23-.17.05.1-.06.15.17.36-.33-.17-.43-.22-.6-.25,0,.05.02.07.2.2-.15-.03,0,.15-.24.01.18.12-.06.01.08.13l-.1-.05.22.13c-.53-.22.21.28-.26.1l-.05-.05.07.08c-.1-.05-.15-.1-.27-.17l-.12.11.18.07s.21.19.05.14c-.29-.25-.04.04-.3-.1l-.07-.08q0,.05.22.18c.05.1-.44-.21-.23-.02l.03-.03c.13.07.3.2.28.21-.04-.01-.14-.06-.16-.09.06.09-.09.08-.01.15-.08-.02-.23-.12-.28-.16.14.2-.07.01.07.21l-.12-.07.13.12-.29-.11.17.08s.08.11,0,.1l-.18-.12c.05.14-.37-.09-.15.14-.04-.01-.09-.06-.11-.08.25.24-.36-.14-.05.14-.06-.04-.14-.08-.19-.11l.1.1-.25-.15.35.24-.27-.13.11.08c-.5-.25-.17.01-.55-.15l.32.18c.58.5-.53.06-.32.38l-.25-.15.26.23c-.22-.08-.2-.14-.33-.21.1.14.35.24.38.36-.19-.06-.18-.12-.25-.19.08.14.16.33-.01.29.03.02.07.05.09.06.08.11-.06.11-.08.17-.11-.07-.12-.09-.14-.12-.03,0-.12-.01-.01.07l-.2-.15c-.07.01.08.2-.17.06.1.05.28.16.25.19-.39-.21.1.19-.13.12-.09-.06-.08-.11-.09-.1-.12-.03.05.1.15.19l-.15-.1.14.25c-.39-.21-.02.15-.29-.02-.04.04.19.06.2.14-.17-.08.05.1-.2-.05l-.03-.02v.05s-.23-.17-.23-.17c.03.07.26.23.44.35-.16-.05-.07.06-.3-.05l-.05-.05c.04.15-.76-.24-.39.07-.04-.01-.1-.05-.09-.06l-.05.05-.18-.12.23.26-.12-.07c-.09.03-.08.17-.09.27l-.05-.05c.14.2-.17.01-.07.16-.03-.02-.04-.03-.05-.04l-.03.06-.11-.08c.24.2-.42-.08-.18.02.1.09.22.22.37.32-.02.07-.17-.08-.3-.1-.04.04.17.17.02.17l-.12-.07s.08.11.08.16l-.05-.05c.22.22-.42-.14.1.24-.12-.03-.07.07-.32-.08.11.18.15.28.2.42-.42-.23.02.03-.25-.06l.22.13c-.04.13-.66-.06-.64.12l-.22-.13.23.17c-.18.07-.37.2-.44.31.09.1.33.31.21.32l-.03-.02c.07.17.1.33-.09.36-.09-.06-.16-.09-.21-.14.23.17-.02.07-.04.09l.18.07c.19.15-.04.08-.21,0l.21.19s-.06-.02-.1-.05l.11.08-.3-.15c.05.05.09.15.35.34-.1-.05-.2-.05-.23-.12l-.19.12.12.03c.22.13.33.26.21.23-.16-.14-.31-.19-.48-.27.1.09.21.09.32.18.13.12.17.22.06.18l-.08-.07c.06.09-.34-.12-.34-.07.16.14-.02.07.36.29.05.1-.27-.13-.31-.14.17.13,0,.14-.19.03.54.35-.28.02.18.31l-.29-.11c.12.07.4.25.43.31-.15-.05-.37-.18-.5-.25l.45.29c-.61-.1-.42.34-.95.3.04.15.19.39.06.46l-.05-.05-.19.03.26.05c.04.05.12.13.1.14-.26,0-.59.02-.44.3.48.41-.51-.22-.17.1-.04-.04-.12-.08-.17-.12.12.2.18.31.44.59-.52-.32-.03.07-.3-.1l.21.13c-.14-.06-.22-.03-.37-.13l.24.2-.22-.13c-.05.05.06.27-.4.04.25.34.02.5-.17.62.17.13.15.19.15.24l-.29-.11c.06.09.36.33.17.26-.03-.02-.05-.03-.06-.04.03.07-.13.03.09.21-.04.04-.21,0-.44-.16.43.26-.12.06-.12.06,0,0-2.43,1.7-.41,3.66.2.15.31.28.58.41.06.09-.33-.12-.12.02.18.03.55.35.85.45l.03.07c.15.1-.15-.15.13.02l-.4-.25c.08,0,.17.04.31.11-.14-.12-.68-.46-.4-.38v.03c.03-.06.29.12.36.15h-.01s.23.09.23.09c-.15-.05.14.2.13.16.15,0-.11-.04-.13-.12,0-.04.21.09.33.17l.02-.06c.19.11-.03.03.17.12l-.16-.18c.48.27-.19-.2.28.03.08.11.16.09.31.19l.04-.13c.07.03.13.12.11.08.14.06-.09-.1-.08-.11.14.07.04-.09.36.1.26.05-.38-.27-.16-.23.2.1.01.08.23.17l-.03-.12c.09.06.3.2.24.2.37-.05,1.44.43,1.29.09.24.11.14.11.28.21-.22-.31.61.1.65-.03l-.19-.11c.67.18.44-.21.79-.25l-.14-.06c-.17-.13-.16-.18-.23-.26.1.05.39.26.34.16-.07-.03-.16-.05-.24-.11.58.13.65-.26,1.03-.38.06-.43.64-.58.73-.99-.02.06-.46-.23-.33-.21.84.36-.02-.26.57-.05-.14-.34.65-.12.15-.66l.22.13c.12.03-.03-.07-.04-.11l.06.04c.12-.02-.05-.23.08-.21l-.25-.15c0-.05.2.09.09-.03l.12.07-.21-.19c.43.26.1-.09.32,0-.05-.1-.18-.31-.04-.33.23.12.29.02.44.02.01-.15.04-.37.21-.47l-.28-.16v-.05c.07.04.1.05.13.07.34.16-.04-.15.17-.06-.27-.13-.06,0-.08.02-.15-.05-.41-.24-.24-.2l.06.04-.13-.12c.22.13.34.16.56.29.03-.16-.3-.47-.12-.55.24.16,0-.13.41.14-.11-.18-.35-.19-.63-.41.02-.02-.08-.11.08-.02.1.07.27.13.3.18v-.07s.09.06.11.08c-.18-.26.4-.03.2-.28-.15-.1-.07.01-.22-.08-.25-.28.33.08.16-.15l.2.14c-.13-.12-.3-.24-.1-.19.26.14.18.16.28.26.03-.03.02-.15-.23-.26-.06-.09.17.03.26.05-.06-.04-.19-.06-.29-.15.17.03.22-.06.28-.12.06.04.16.09.19.11-.29-.25.26.09.24-.03Z"/><path d="m482.17,109.36h-.05c.06.04.12.08.17.13l-.12-.13Z"/><path d="m481.24,110.56s.03.03.06.05c0-.01-.03-.03-.06-.05Z"/><path d="m481.5,111.14c-.04-.05-.12-.07-.19-.1.05.03.11.07.19.1Z"/><path d="m481.94,108.23s.05.04.11.07c-.04-.03-.07-.05-.11-.07Z"/><path d="m483.32,106.31s-.02,0-.04-.01c.02,0,.03.01.04.01Z"/><path d="m482.86,106.19s0,.02.02.04c.02,0,0-.02-.02-.04Z"/><path d="m481.74,108.78s.02.03.07.07c0-.01-.03-.04-.07-.07Z"/><path d="m482.93,106.29h-.04s.03.03.05.04v-.04Z"/><path d="m483.37,106.29s-.02.02-.05.02c.08.03.08.02.05-.02Z"/><path d="m482.06,107.3s0,0,0,0c.09.09.06.04,0,0Z"/><polygon points="483.28 106.66 483.27 106.66 483.33 106.71 483.28 106.66"/><path d="m483.54,106.22s.01.02.04.04c.01,0,.02,0,.04,0-.03-.02-.06-.03-.08-.04Z"/><path d="m482.7,107.1c-.09-.06-.15-.1-.2-.13,0,.01.04.04.2.13Z"/></svg>